<mxfile host="app.diagrams.net" modified="2021-10-21T07:28:44.488Z" agent="5.0 (Windows NT 10.0; Win64; x64) AppleWebKit/537.36 (KHTML, like Gecko) Chrome/95.0.4638.54 Safari/537.36" etag="GWrbVvRWVG7II_A0BGT9" version="15.5.6" type="github" pages="2">
  <diagram id="wl7NIfgXZob2GiVpN4U7" name="E-R">
    <mxGraphModel dx="4155" dy="1885" grid="1" gridSize="10" guides="1" tooltips="1" connect="1" arrows="1" fold="1" page="1" pageScale="1" pageWidth="1654" pageHeight="2336" math="0" shadow="0">
      <root>
        <mxCell id="0" />
        <mxCell id="1" parent="0" />
        <mxCell id="WYWjUhm8YObNl2KhzV3R-1" value="취소내역" style="swimlane;fontStyle=0;childLayout=stackLayout;horizontal=1;startSize=30;horizontalStack=0;resizeParent=1;resizeParentMax=0;resizeLast=0;collapsible=1;marginBottom=0;" parent="1" vertex="1">
          <mxGeometry x="530" y="460" width="140" height="210" as="geometry" />
        </mxCell>
        <mxCell id="WYWjUhm8YObNl2KhzV3R-2" value="취소 번호" style="text;strokeColor=none;fillColor=none;align=left;verticalAlign=middle;spacingLeft=4;spacingRight=4;overflow=hidden;points=[[0,0.5],[1,0.5]];portConstraint=eastwest;rotatable=0;fontStyle=4" parent="WYWjUhm8YObNl2KhzV3R-1" vertex="1">
          <mxGeometry y="30" width="140" height="30" as="geometry" />
        </mxCell>
        <mxCell id="zI3FBDW7Pap5S3CXbZqt-8" value="영화명" style="text;strokeColor=none;fillColor=none;align=left;verticalAlign=middle;spacingLeft=4;spacingRight=4;overflow=hidden;points=[[0,0.5],[1,0.5]];portConstraint=eastwest;rotatable=0;" parent="WYWjUhm8YObNl2KhzV3R-1" vertex="1">
          <mxGeometry y="60" width="140" height="30" as="geometry" />
        </mxCell>
        <mxCell id="yif0Wcix96Lz_UaRE6Wn-19" value="매장명" style="text;strokeColor=none;fillColor=none;align=left;verticalAlign=middle;spacingLeft=4;spacingRight=4;overflow=hidden;points=[[0,0.5],[1,0.5]];portConstraint=eastwest;rotatable=0;" parent="WYWjUhm8YObNl2KhzV3R-1" vertex="1">
          <mxGeometry y="90" width="140" height="30" as="geometry" />
        </mxCell>
        <mxCell id="zI3FBDW7Pap5S3CXbZqt-7" value="관람 일시" style="text;strokeColor=none;fillColor=none;align=left;verticalAlign=middle;spacingLeft=4;spacingRight=4;overflow=hidden;points=[[0,0.5],[1,0.5]];portConstraint=eastwest;rotatable=0;" parent="WYWjUhm8YObNl2KhzV3R-1" vertex="1">
          <mxGeometry y="120" width="140" height="30" as="geometry" />
        </mxCell>
        <mxCell id="zI3FBDW7Pap5S3CXbZqt-4" value="결제 금액" style="text;strokeColor=none;fillColor=none;align=left;verticalAlign=middle;spacingLeft=4;spacingRight=4;overflow=hidden;points=[[0,0.5],[1,0.5]];portConstraint=eastwest;rotatable=0;" parent="WYWjUhm8YObNl2KhzV3R-1" vertex="1">
          <mxGeometry y="150" width="140" height="30" as="geometry" />
        </mxCell>
        <mxCell id="eux5ETpcmqmiEMaok0SH-33" value="취소 일시" style="text;strokeColor=none;fillColor=none;align=left;verticalAlign=middle;spacingLeft=4;spacingRight=4;overflow=hidden;points=[[0,0.5],[1,0.5]];portConstraint=eastwest;rotatable=0;" parent="WYWjUhm8YObNl2KhzV3R-1" vertex="1">
          <mxGeometry y="180" width="140" height="30" as="geometry" />
        </mxCell>
        <mxCell id="WYWjUhm8YObNl2KhzV3R-15" value="영화" style="swimlane;fontStyle=0;childLayout=stackLayout;horizontal=1;startSize=30;horizontalStack=0;resizeParent=1;resizeParentMax=0;resizeLast=0;collapsible=1;marginBottom=0;" parent="1" vertex="1">
          <mxGeometry x="1554" y="1540" width="140" height="300" as="geometry" />
        </mxCell>
        <mxCell id="WYWjUhm8YObNl2KhzV3R-16" value="영화 ID" style="text;strokeColor=none;fillColor=none;align=left;verticalAlign=middle;spacingLeft=4;spacingRight=4;overflow=hidden;points=[[0,0.5],[1,0.5]];portConstraint=eastwest;rotatable=0;fontStyle=4" parent="WYWjUhm8YObNl2KhzV3R-15" vertex="1">
          <mxGeometry y="30" width="140" height="30" as="geometry" />
        </mxCell>
        <mxCell id="WYWjUhm8YObNl2KhzV3R-17" value="영화 이름" style="text;strokeColor=none;fillColor=none;align=left;verticalAlign=middle;spacingLeft=4;spacingRight=4;overflow=hidden;points=[[0,0.5],[1,0.5]];portConstraint=eastwest;rotatable=0;" parent="WYWjUhm8YObNl2KhzV3R-15" vertex="1">
          <mxGeometry y="60" width="140" height="30" as="geometry" />
        </mxCell>
        <mxCell id="WYWjUhm8YObNl2KhzV3R-18" value="상영 등급" style="text;strokeColor=none;fillColor=none;align=left;verticalAlign=middle;spacingLeft=4;spacingRight=4;overflow=hidden;points=[[0,0.5],[1,0.5]];portConstraint=eastwest;rotatable=0;" parent="WYWjUhm8YObNl2KhzV3R-15" vertex="1">
          <mxGeometry y="90" width="140" height="30" as="geometry" />
        </mxCell>
        <mxCell id="WYWjUhm8YObNl2KhzV3R-19" value="감독" style="text;strokeColor=none;fillColor=none;align=left;verticalAlign=middle;spacingLeft=4;spacingRight=4;overflow=hidden;points=[[0,0.5],[1,0.5]];portConstraint=eastwest;rotatable=0;" parent="WYWjUhm8YObNl2KhzV3R-15" vertex="1">
          <mxGeometry y="120" width="140" height="30" as="geometry" />
        </mxCell>
        <mxCell id="WYWjUhm8YObNl2KhzV3R-126" value="출연배우" style="text;strokeColor=none;fillColor=none;align=left;verticalAlign=middle;spacingLeft=4;spacingRight=4;overflow=hidden;points=[[0,0.5],[1,0.5]];portConstraint=eastwest;rotatable=0;" parent="WYWjUhm8YObNl2KhzV3R-15" vertex="1">
          <mxGeometry y="150" width="140" height="30" as="geometry" />
        </mxCell>
        <mxCell id="WYWjUhm8YObNl2KhzV3R-21" value="장르" style="text;strokeColor=none;fillColor=none;align=left;verticalAlign=middle;spacingLeft=4;spacingRight=4;overflow=hidden;points=[[0,0.5],[1,0.5]];portConstraint=eastwest;rotatable=0;" parent="WYWjUhm8YObNl2KhzV3R-15" vertex="1">
          <mxGeometry y="180" width="140" height="30" as="geometry" />
        </mxCell>
        <mxCell id="0jpGqaHGPof7GPKdyG1Q-2" value="개봉일" style="text;strokeColor=none;fillColor=none;align=left;verticalAlign=middle;spacingLeft=4;spacingRight=4;overflow=hidden;points=[[0,0.5],[1,0.5]];portConstraint=eastwest;rotatable=0;" parent="WYWjUhm8YObNl2KhzV3R-15" vertex="1">
          <mxGeometry y="210" width="140" height="30" as="geometry" />
        </mxCell>
        <mxCell id="0jpGqaHGPof7GPKdyG1Q-3" value="상영시간" style="text;strokeColor=none;fillColor=none;align=left;verticalAlign=middle;spacingLeft=4;spacingRight=4;overflow=hidden;points=[[0,0.5],[1,0.5]];portConstraint=eastwest;rotatable=0;" parent="WYWjUhm8YObNl2KhzV3R-15" vertex="1">
          <mxGeometry y="240" width="140" height="30" as="geometry" />
        </mxCell>
        <mxCell id="0jpGqaHGPof7GPKdyG1Q-4" value="제작 국가" style="text;strokeColor=none;fillColor=none;align=left;verticalAlign=middle;spacingLeft=4;spacingRight=4;overflow=hidden;points=[[0,0.5],[1,0.5]];portConstraint=eastwest;rotatable=0;" parent="WYWjUhm8YObNl2KhzV3R-15" vertex="1">
          <mxGeometry y="270" width="140" height="30" as="geometry" />
        </mxCell>
        <mxCell id="WYWjUhm8YObNl2KhzV3R-25" value="예매" style="shape=rhombus;perimeter=rhombusPerimeter;whiteSpace=wrap;html=1;align=center;" parent="1" vertex="1">
          <mxGeometry x="1039" y="832.5" width="80" height="55" as="geometry" />
        </mxCell>
        <mxCell id="WYWjUhm8YObNl2KhzV3R-35" value="취소" style="shape=rhombus;perimeter=rhombusPerimeter;whiteSpace=wrap;html=1;align=center;" parent="1" vertex="1">
          <mxGeometry x="790" y="540" width="80" height="55" as="geometry" />
        </mxCell>
        <mxCell id="WYWjUhm8YObNl2KhzV3R-42" value="상영시간표" style="swimlane;fontStyle=0;childLayout=stackLayout;horizontal=1;startSize=30;horizontalStack=0;resizeParent=1;resizeParentMax=0;resizeLast=0;collapsible=1;marginBottom=0;" parent="1" vertex="1">
          <mxGeometry x="2140" y="985.5" width="140" height="210" as="geometry">
            <mxRectangle x="1784" y="1940" width="90" height="30" as="alternateBounds" />
          </mxGeometry>
        </mxCell>
        <mxCell id="WYWjUhm8YObNl2KhzV3R-44" value="상영시간표 ID" style="text;strokeColor=none;fillColor=none;align=left;verticalAlign=middle;spacingLeft=4;spacingRight=4;overflow=hidden;points=[[0,0.5],[1,0.5]];portConstraint=eastwest;rotatable=0;fontStyle=4" parent="WYWjUhm8YObNl2KhzV3R-42" vertex="1">
          <mxGeometry y="30" width="140" height="30" as="geometry" />
        </mxCell>
        <mxCell id="yif0Wcix96Lz_UaRE6Wn-35" value="상영관 정보" style="text;strokeColor=none;fillColor=none;align=left;verticalAlign=middle;spacingLeft=4;spacingRight=4;overflow=hidden;points=[[0,0.5],[1,0.5]];portConstraint=eastwest;rotatable=0;fontStyle=0" parent="WYWjUhm8YObNl2KhzV3R-42" vertex="1">
          <mxGeometry y="60" width="140" height="30" as="geometry" />
        </mxCell>
        <mxCell id="yif0Wcix96Lz_UaRE6Wn-34" value="영화 정보" style="text;strokeColor=none;fillColor=none;align=left;verticalAlign=middle;spacingLeft=4;spacingRight=4;overflow=hidden;points=[[0,0.5],[1,0.5]];portConstraint=eastwest;rotatable=0;fontStyle=0" parent="WYWjUhm8YObNl2KhzV3R-42" vertex="1">
          <mxGeometry y="90" width="140" height="30" as="geometry" />
        </mxCell>
        <mxCell id="WYWjUhm8YObNl2KhzV3R-46" value="상영 날짜" style="text;strokeColor=none;fillColor=none;align=left;verticalAlign=middle;spacingLeft=4;spacingRight=4;overflow=hidden;points=[[0,0.5],[1,0.5]];portConstraint=eastwest;rotatable=0;" parent="WYWjUhm8YObNl2KhzV3R-42" vertex="1">
          <mxGeometry y="120" width="140" height="30" as="geometry" />
        </mxCell>
        <mxCell id="WYWjUhm8YObNl2KhzV3R-47" value="상영 시간" style="text;strokeColor=none;fillColor=none;align=left;verticalAlign=middle;spacingLeft=4;spacingRight=4;overflow=hidden;points=[[0,0.5],[1,0.5]];portConstraint=eastwest;rotatable=0;" parent="WYWjUhm8YObNl2KhzV3R-42" vertex="1">
          <mxGeometry y="150" width="140" height="30" as="geometry" />
        </mxCell>
        <mxCell id="yif0Wcix96Lz_UaRE6Wn-36" value="잔여 좌석" style="text;strokeColor=none;fillColor=none;align=left;verticalAlign=middle;spacingLeft=4;spacingRight=4;overflow=hidden;points=[[0,0.5],[1,0.5]];portConstraint=eastwest;rotatable=0;" parent="WYWjUhm8YObNl2KhzV3R-42" vertex="1">
          <mxGeometry y="180" width="140" height="30" as="geometry" />
        </mxCell>
        <mxCell id="WYWjUhm8YObNl2KhzV3R-49" value="상영관" style="swimlane;fontStyle=0;childLayout=stackLayout;horizontal=1;startSize=30;horizontalStack=0;resizeParent=1;resizeParentMax=0;resizeLast=0;collapsible=1;marginBottom=0;" parent="1" vertex="1">
          <mxGeometry x="1865" y="1590" width="140" height="120" as="geometry" />
        </mxCell>
        <mxCell id="WYWjUhm8YObNl2KhzV3R-50" value="상영관 명" style="text;strokeColor=none;fillColor=none;align=left;verticalAlign=middle;spacingLeft=4;spacingRight=4;overflow=hidden;points=[[0,0.5],[1,0.5]];portConstraint=eastwest;rotatable=0;fontStyle=4" parent="WYWjUhm8YObNl2KhzV3R-49" vertex="1">
          <mxGeometry y="30" width="140" height="30" as="geometry" />
        </mxCell>
        <mxCell id="cKguODEbhtYFb7qhuA4d-14" value="좌석 현황" style="text;strokeColor=none;fillColor=none;align=left;verticalAlign=middle;spacingLeft=4;spacingRight=4;overflow=hidden;points=[[0,0.5],[1,0.5]];portConstraint=eastwest;rotatable=0;" parent="WYWjUhm8YObNl2KhzV3R-49" vertex="1">
          <mxGeometry y="60" width="140" height="30" as="geometry" />
        </mxCell>
        <mxCell id="2ric9XNbPDOC2nrLQo_Z-3" value="상영관 종류" style="text;strokeColor=none;fillColor=none;align=left;verticalAlign=middle;spacingLeft=4;spacingRight=4;overflow=hidden;points=[[0,0.5],[1,0.5]];portConstraint=eastwest;rotatable=0;" parent="WYWjUhm8YObNl2KhzV3R-49" vertex="1">
          <mxGeometry y="90" width="140" height="30" as="geometry" />
        </mxCell>
        <mxCell id="WYWjUhm8YObNl2KhzV3R-62" value="매장" style="swimlane;fontStyle=0;childLayout=stackLayout;horizontal=1;startSize=45;horizontalStack=0;resizeParent=1;resizeParentMax=0;resizeLast=0;collapsible=1;marginBottom=0;" parent="1" vertex="1">
          <mxGeometry x="1774" y="870" width="140" height="225" as="geometry" />
        </mxCell>
        <mxCell id="WYWjUhm8YObNl2KhzV3R-63" value="매장명" style="text;strokeColor=none;fillColor=none;align=left;verticalAlign=middle;spacingLeft=4;spacingRight=4;overflow=hidden;points=[[0,0.5],[1,0.5]];portConstraint=eastwest;rotatable=0;fontStyle=4" parent="WYWjUhm8YObNl2KhzV3R-62" vertex="1">
          <mxGeometry y="45" width="140" height="30" as="geometry" />
        </mxCell>
        <mxCell id="WYWjUhm8YObNl2KhzV3R-67" value="위치" style="text;strokeColor=none;fillColor=none;align=left;verticalAlign=middle;spacingLeft=4;spacingRight=4;overflow=hidden;points=[[0,0.5],[1,0.5]];portConstraint=eastwest;rotatable=0;" parent="WYWjUhm8YObNl2KhzV3R-62" vertex="1">
          <mxGeometry y="75" width="140" height="30" as="geometry" />
        </mxCell>
        <mxCell id="WYWjUhm8YObNl2KhzV3R-68" value="전화번호" style="text;strokeColor=none;fillColor=none;align=left;verticalAlign=middle;spacingLeft=4;spacingRight=4;overflow=hidden;points=[[0,0.5],[1,0.5]];portConstraint=eastwest;rotatable=0;" parent="WYWjUhm8YObNl2KhzV3R-62" vertex="1">
          <mxGeometry y="105" width="140" height="30" as="geometry" />
        </mxCell>
        <mxCell id="yif0Wcix96Lz_UaRE6Wn-47" value="상영관 수" style="text;strokeColor=none;fillColor=none;align=left;verticalAlign=middle;spacingLeft=4;spacingRight=4;overflow=hidden;points=[[0,0.5],[1,0.5]];portConstraint=eastwest;rotatable=0;" parent="WYWjUhm8YObNl2KhzV3R-62" vertex="1">
          <mxGeometry y="135" width="140" height="30" as="geometry" />
        </mxCell>
        <mxCell id="yif0Wcix96Lz_UaRE6Wn-46" value="좌석 수" style="text;strokeColor=none;fillColor=none;align=left;verticalAlign=middle;spacingLeft=4;spacingRight=4;overflow=hidden;points=[[0,0.5],[1,0.5]];portConstraint=eastwest;rotatable=0;" parent="WYWjUhm8YObNl2KhzV3R-62" vertex="1">
          <mxGeometry y="165" width="140" height="30" as="geometry" />
        </mxCell>
        <mxCell id="eux5ETpcmqmiEMaok0SH-3" value="특별관 유무" style="text;strokeColor=none;fillColor=none;align=left;verticalAlign=middle;spacingLeft=4;spacingRight=4;overflow=hidden;points=[[0,0.5],[1,0.5]];portConstraint=eastwest;rotatable=0;" parent="WYWjUhm8YObNl2KhzV3R-62" vertex="1">
          <mxGeometry y="195" width="140" height="30" as="geometry" />
        </mxCell>
        <mxCell id="WYWjUhm8YObNl2KhzV3R-72" value="직원" style="swimlane;fontStyle=0;childLayout=stackLayout;horizontal=1;startSize=30;horizontalStack=0;resizeParent=1;resizeParentMax=0;resizeLast=0;collapsible=1;marginBottom=0;" parent="1" vertex="1">
          <mxGeometry x="2710" y="655" width="140" height="300" as="geometry" />
        </mxCell>
        <mxCell id="WYWjUhm8YObNl2KhzV3R-73" value="직원 ID" style="text;strokeColor=none;fillColor=none;align=left;verticalAlign=middle;spacingLeft=4;spacingRight=4;overflow=hidden;points=[[0,0.5],[1,0.5]];portConstraint=eastwest;rotatable=0;fontStyle=4" parent="WYWjUhm8YObNl2KhzV3R-72" vertex="1">
          <mxGeometry y="30" width="140" height="30" as="geometry" />
        </mxCell>
        <mxCell id="yif0Wcix96Lz_UaRE6Wn-29" value="PW" style="text;strokeColor=none;fillColor=none;align=left;verticalAlign=middle;spacingLeft=4;spacingRight=4;overflow=hidden;points=[[0,0.5],[1,0.5]];portConstraint=eastwest;rotatable=0;fontStyle=0" parent="WYWjUhm8YObNl2KhzV3R-72" vertex="1">
          <mxGeometry y="60" width="140" height="30" as="geometry" />
        </mxCell>
        <mxCell id="WYWjUhm8YObNl2KhzV3R-74" value="이름" style="text;strokeColor=none;fillColor=none;align=left;verticalAlign=middle;spacingLeft=4;spacingRight=4;overflow=hidden;points=[[0,0.5],[1,0.5]];portConstraint=eastwest;rotatable=0;" parent="WYWjUhm8YObNl2KhzV3R-72" vertex="1">
          <mxGeometry y="90" width="140" height="30" as="geometry" />
        </mxCell>
        <mxCell id="eux5ETpcmqmiEMaok0SH-64" value="생년월일" style="text;strokeColor=none;fillColor=none;align=left;verticalAlign=middle;spacingLeft=4;spacingRight=4;overflow=hidden;points=[[0,0.5],[1,0.5]];portConstraint=eastwest;rotatable=0;" parent="WYWjUhm8YObNl2KhzV3R-72" vertex="1">
          <mxGeometry y="120" width="140" height="30" as="geometry" />
        </mxCell>
        <mxCell id="WYWjUhm8YObNl2KhzV3R-75" value="성별" style="text;strokeColor=none;fillColor=none;align=left;verticalAlign=middle;spacingLeft=4;spacingRight=4;overflow=hidden;points=[[0,0.5],[1,0.5]];portConstraint=eastwest;rotatable=0;" parent="WYWjUhm8YObNl2KhzV3R-72" vertex="1">
          <mxGeometry y="150" width="140" height="30" as="geometry" />
        </mxCell>
        <mxCell id="eux5ETpcmqmiEMaok0SH-65" value="전화번호" style="text;strokeColor=none;fillColor=none;align=left;verticalAlign=middle;spacingLeft=4;spacingRight=4;overflow=hidden;points=[[0,0.5],[1,0.5]];portConstraint=eastwest;rotatable=0;" parent="WYWjUhm8YObNl2KhzV3R-72" vertex="1">
          <mxGeometry y="180" width="140" height="30" as="geometry" />
        </mxCell>
        <mxCell id="WYWjUhm8YObNl2KhzV3R-78" value="직책" style="text;strokeColor=none;fillColor=none;align=left;verticalAlign=middle;spacingLeft=4;spacingRight=4;overflow=hidden;points=[[0,0.5],[1,0.5]];portConstraint=eastwest;rotatable=0;" parent="WYWjUhm8YObNl2KhzV3R-72" vertex="1">
          <mxGeometry y="210" width="140" height="30" as="geometry" />
        </mxCell>
        <mxCell id="WYWjUhm8YObNl2KhzV3R-80" value="부서명" style="text;strokeColor=none;fillColor=none;align=left;verticalAlign=middle;spacingLeft=4;spacingRight=4;overflow=hidden;points=[[0,0.5],[1,0.5]];portConstraint=eastwest;rotatable=0;" parent="WYWjUhm8YObNl2KhzV3R-72" vertex="1">
          <mxGeometry y="240" width="140" height="30" as="geometry" />
        </mxCell>
        <mxCell id="WYWjUhm8YObNl2KhzV3R-81" value="급여" style="text;strokeColor=none;fillColor=none;align=left;verticalAlign=middle;spacingLeft=4;spacingRight=4;overflow=hidden;points=[[0,0.5],[1,0.5]];portConstraint=eastwest;rotatable=0;" parent="WYWjUhm8YObNl2KhzV3R-72" vertex="1">
          <mxGeometry y="270" width="140" height="30" as="geometry" />
        </mxCell>
        <mxCell id="WYWjUhm8YObNl2KhzV3R-83" value="부서" style="swimlane;fontStyle=0;childLayout=stackLayout;horizontal=1;startSize=30;horizontalStack=0;resizeParent=1;resizeParentMax=0;resizeLast=0;collapsible=1;marginBottom=0;" parent="1" vertex="1">
          <mxGeometry x="2710" y="1107.5" width="140" height="120" as="geometry" />
        </mxCell>
        <mxCell id="WYWjUhm8YObNl2KhzV3R-84" value="부서명" style="text;strokeColor=none;fillColor=none;align=left;verticalAlign=middle;spacingLeft=4;spacingRight=4;overflow=hidden;points=[[0,0.5],[1,0.5]];portConstraint=eastwest;rotatable=0;fontStyle=4" parent="WYWjUhm8YObNl2KhzV3R-83" vertex="1">
          <mxGeometry y="30" width="140" height="30" as="geometry" />
        </mxCell>
        <mxCell id="zqSdYx53ZZpXEfOoCQmj-22" value="매뉴얼" style="text;strokeColor=none;fillColor=none;align=left;verticalAlign=middle;spacingLeft=4;spacingRight=4;overflow=hidden;points=[[0,0.5],[1,0.5]];portConstraint=eastwest;rotatable=0;fontStyle=0" parent="WYWjUhm8YObNl2KhzV3R-83" vertex="1">
          <mxGeometry y="60" width="140" height="30" as="geometry" />
        </mxCell>
        <mxCell id="WYWjUhm8YObNl2KhzV3R-85" value="업무" style="text;strokeColor=none;fillColor=none;align=left;verticalAlign=middle;spacingLeft=4;spacingRight=4;overflow=hidden;points=[[0,0.5],[1,0.5]];portConstraint=eastwest;rotatable=0;" parent="WYWjUhm8YObNl2KhzV3R-83" vertex="1">
          <mxGeometry y="90" width="140" height="30" as="geometry" />
        </mxCell>
        <mxCell id="WYWjUhm8YObNl2KhzV3R-86" value="직원근태관리" style="swimlane;fontStyle=0;childLayout=stackLayout;horizontal=1;startSize=30;horizontalStack=0;resizeParent=1;resizeParentMax=0;resizeLast=0;collapsible=1;marginBottom=0;" parent="1" vertex="1">
          <mxGeometry x="2540" y="565" width="140" height="210" as="geometry" />
        </mxCell>
        <mxCell id="WYWjUhm8YObNl2KhzV3R-87" value="년월" style="text;strokeColor=none;fillColor=none;align=left;verticalAlign=middle;spacingLeft=4;spacingRight=4;overflow=hidden;points=[[0,0.5],[1,0.5]];portConstraint=eastwest;rotatable=0;fontStyle=4" parent="WYWjUhm8YObNl2KhzV3R-86" vertex="1">
          <mxGeometry y="30" width="140" height="30" as="geometry" />
        </mxCell>
        <mxCell id="zqSdYx53ZZpXEfOoCQmj-12" value="직원 정보" style="text;strokeColor=none;fillColor=none;align=left;verticalAlign=middle;spacingLeft=4;spacingRight=4;overflow=hidden;points=[[0,0.5],[1,0.5]];portConstraint=eastwest;rotatable=0;fontStyle=0" parent="WYWjUhm8YObNl2KhzV3R-86" vertex="1">
          <mxGeometry y="60" width="140" height="30" as="geometry" />
        </mxCell>
        <mxCell id="WYWjUhm8YObNl2KhzV3R-88" value="출근 시간" style="text;strokeColor=none;fillColor=none;align=left;verticalAlign=middle;spacingLeft=4;spacingRight=4;overflow=hidden;points=[[0,0.5],[1,0.5]];portConstraint=eastwest;rotatable=0;" parent="WYWjUhm8YObNl2KhzV3R-86" vertex="1">
          <mxGeometry y="90" width="140" height="30" as="geometry" />
        </mxCell>
        <mxCell id="WYWjUhm8YObNl2KhzV3R-92" value="퇴근 시간" style="text;strokeColor=none;fillColor=none;align=left;verticalAlign=middle;spacingLeft=4;spacingRight=4;overflow=hidden;points=[[0,0.5],[1,0.5]];portConstraint=eastwest;rotatable=0;" parent="WYWjUhm8YObNl2KhzV3R-86" vertex="1">
          <mxGeometry y="120" width="140" height="30" as="geometry" />
        </mxCell>
        <mxCell id="zqSdYx53ZZpXEfOoCQmj-13" value="근태 정보" style="text;strokeColor=none;fillColor=none;align=left;verticalAlign=middle;spacingLeft=4;spacingRight=4;overflow=hidden;points=[[0,0.5],[1,0.5]];portConstraint=eastwest;rotatable=0;" parent="WYWjUhm8YObNl2KhzV3R-86" vertex="1">
          <mxGeometry y="150" width="140" height="30" as="geometry" />
        </mxCell>
        <mxCell id="zqSdYx53ZZpXEfOoCQmj-20" value="현재 상태" style="text;strokeColor=none;fillColor=none;align=left;verticalAlign=middle;spacingLeft=4;spacingRight=4;overflow=hidden;points=[[0,0.5],[1,0.5]];portConstraint=eastwest;rotatable=0;" parent="WYWjUhm8YObNl2KhzV3R-86" vertex="1">
          <mxGeometry y="180" width="140" height="30" as="geometry" />
        </mxCell>
        <mxCell id="WYWjUhm8YObNl2KhzV3R-121" value="게시판" style="swimlane;fontStyle=0;childLayout=stackLayout;horizontal=1;startSize=30;horizontalStack=0;resizeParent=1;resizeParentMax=0;resizeLast=0;collapsible=1;marginBottom=0;" parent="1" vertex="1">
          <mxGeometry x="1540" y="1112.5" width="140" height="150" as="geometry" />
        </mxCell>
        <mxCell id="WYWjUhm8YObNl2KhzV3R-122" value="글 번호" style="text;strokeColor=none;fillColor=none;align=left;verticalAlign=middle;spacingLeft=4;spacingRight=4;overflow=hidden;points=[[0,0.5],[1,0.5]];portConstraint=eastwest;rotatable=0;fontStyle=4" parent="WYWjUhm8YObNl2KhzV3R-121" vertex="1">
          <mxGeometry y="30" width="140" height="30" as="geometry" />
        </mxCell>
        <mxCell id="WYWjUhm8YObNl2KhzV3R-143" value="제목" style="text;strokeColor=none;fillColor=none;align=left;verticalAlign=middle;spacingLeft=4;spacingRight=4;overflow=hidden;points=[[0,0.5],[1,0.5]];portConstraint=eastwest;rotatable=0;" parent="WYWjUhm8YObNl2KhzV3R-121" vertex="1">
          <mxGeometry y="60" width="140" height="30" as="geometry" />
        </mxCell>
        <mxCell id="yif0Wcix96Lz_UaRE6Wn-23" value="내용" style="text;strokeColor=none;fillColor=none;align=left;verticalAlign=middle;spacingLeft=4;spacingRight=4;overflow=hidden;points=[[0,0.5],[1,0.5]];portConstraint=eastwest;rotatable=0;" parent="WYWjUhm8YObNl2KhzV3R-121" vertex="1">
          <mxGeometry y="90" width="140" height="30" as="geometry" />
        </mxCell>
        <mxCell id="yif0Wcix96Lz_UaRE6Wn-22" value="등록일" style="text;strokeColor=none;fillColor=none;align=left;verticalAlign=middle;spacingLeft=4;spacingRight=4;overflow=hidden;points=[[0,0.5],[1,0.5]];portConstraint=eastwest;rotatable=0;" parent="WYWjUhm8YObNl2KhzV3R-121" vertex="1">
          <mxGeometry y="120" width="140" height="30" as="geometry" />
        </mxCell>
        <mxCell id="WYWjUhm8YObNl2KhzV3R-134" value="좌석" style="swimlane;fontStyle=0;childLayout=stackLayout;horizontal=1;startSize=30;horizontalStack=0;resizeParent=1;resizeParentMax=0;resizeLast=0;collapsible=1;marginBottom=0;" parent="1" vertex="1">
          <mxGeometry x="2170" y="1610" width="140" height="120" as="geometry" />
        </mxCell>
        <mxCell id="WYWjUhm8YObNl2KhzV3R-135" value="좌석 번호" style="text;strokeColor=none;fillColor=none;align=left;verticalAlign=middle;spacingLeft=4;spacingRight=4;overflow=hidden;points=[[0,0.5],[1,0.5]];portConstraint=eastwest;rotatable=0;fontStyle=4" parent="WYWjUhm8YObNl2KhzV3R-134" vertex="1">
          <mxGeometry y="30" width="140" height="30" as="geometry" />
        </mxCell>
        <mxCell id="WYWjUhm8YObNl2KhzV3R-120" value="예매 여부" style="text;strokeColor=none;fillColor=none;align=left;verticalAlign=middle;spacingLeft=4;spacingRight=4;overflow=hidden;points=[[0,0.5],[1,0.5]];portConstraint=eastwest;rotatable=0;" parent="WYWjUhm8YObNl2KhzV3R-134" vertex="1">
          <mxGeometry y="60" width="140" height="30" as="geometry" />
        </mxCell>
        <mxCell id="eux5ETpcmqmiEMaok0SH-4" value="좌석 종류" style="text;strokeColor=none;fillColor=none;align=left;verticalAlign=middle;spacingLeft=4;spacingRight=4;overflow=hidden;points=[[0,0.5],[1,0.5]];portConstraint=eastwest;rotatable=0;" parent="WYWjUhm8YObNl2KhzV3R-134" vertex="1">
          <mxGeometry y="90" width="140" height="30" as="geometry" />
        </mxCell>
        <mxCell id="RoAabJP-WERvAbmFDm9a-14" value="고객" style="swimlane;fontStyle=0;childLayout=stackLayout;horizontal=1;startSize=30;horizontalStack=0;resizeParent=1;resizeParentMax=0;resizeLast=0;collapsible=1;marginBottom=0;" parent="1" vertex="1">
          <mxGeometry x="750" y="742.5" width="140" height="360" as="geometry" />
        </mxCell>
        <mxCell id="RoAabJP-WERvAbmFDm9a-15" value="고객 ID " style="text;strokeColor=none;fillColor=none;align=left;verticalAlign=middle;spacingLeft=4;spacingRight=4;overflow=hidden;points=[[0,0.5],[1,0.5]];portConstraint=eastwest;rotatable=0;fontStyle=4" parent="RoAabJP-WERvAbmFDm9a-14" vertex="1">
          <mxGeometry y="30" width="140" height="30" as="geometry" />
        </mxCell>
        <mxCell id="RoAabJP-WERvAbmFDm9a-16" value="PW" style="text;strokeColor=none;fillColor=none;align=left;verticalAlign=middle;spacingLeft=4;spacingRight=4;overflow=hidden;points=[[0,0.5],[1,0.5]];portConstraint=eastwest;rotatable=0;" parent="RoAabJP-WERvAbmFDm9a-14" vertex="1">
          <mxGeometry y="60" width="140" height="30" as="geometry" />
        </mxCell>
        <mxCell id="RoAabJP-WERvAbmFDm9a-17" value="이름    " style="text;strokeColor=none;fillColor=none;align=left;verticalAlign=middle;spacingLeft=4;spacingRight=4;overflow=hidden;points=[[0,0.5],[1,0.5]];portConstraint=eastwest;rotatable=0;" parent="RoAabJP-WERvAbmFDm9a-14" vertex="1">
          <mxGeometry y="90" width="140" height="30" as="geometry" />
        </mxCell>
        <mxCell id="RoAabJP-WERvAbmFDm9a-18" value="생년월일" style="text;strokeColor=none;fillColor=none;align=left;verticalAlign=middle;spacingLeft=4;spacingRight=4;overflow=hidden;points=[[0,0.5],[1,0.5]];portConstraint=eastwest;rotatable=0;" parent="RoAabJP-WERvAbmFDm9a-14" vertex="1">
          <mxGeometry y="120" width="140" height="30" as="geometry" />
        </mxCell>
        <mxCell id="RoAabJP-WERvAbmFDm9a-19" value="성별" style="text;strokeColor=none;fillColor=none;align=left;verticalAlign=middle;spacingLeft=4;spacingRight=4;overflow=hidden;points=[[0,0.5],[1,0.5]];portConstraint=eastwest;rotatable=0;" parent="RoAabJP-WERvAbmFDm9a-14" vertex="1">
          <mxGeometry y="150" width="140" height="30" as="geometry" />
        </mxCell>
        <mxCell id="RoAabJP-WERvAbmFDm9a-20" value="전화번호" style="text;strokeColor=none;fillColor=none;align=left;verticalAlign=middle;spacingLeft=4;spacingRight=4;overflow=hidden;points=[[0,0.5],[1,0.5]];portConstraint=eastwest;rotatable=0;" parent="RoAabJP-WERvAbmFDm9a-14" vertex="1">
          <mxGeometry y="180" width="140" height="30" as="geometry" />
        </mxCell>
        <mxCell id="RoAabJP-WERvAbmFDm9a-21" value="등급" style="text;strokeColor=none;fillColor=none;align=left;verticalAlign=middle;spacingLeft=4;spacingRight=4;overflow=hidden;points=[[0,0.5],[1,0.5]];portConstraint=eastwest;rotatable=0;" parent="RoAabJP-WERvAbmFDm9a-14" vertex="1">
          <mxGeometry y="210" width="140" height="30" as="geometry" />
        </mxCell>
        <mxCell id="RoAabJP-WERvAbmFDm9a-22" value="닉네임" style="text;strokeColor=none;fillColor=none;align=left;verticalAlign=middle;spacingLeft=4;spacingRight=4;overflow=hidden;points=[[0,0.5],[1,0.5]];portConstraint=eastwest;rotatable=0;" parent="RoAabJP-WERvAbmFDm9a-14" vertex="1">
          <mxGeometry y="240" width="140" height="30" as="geometry" />
        </mxCell>
        <mxCell id="RoAabJP-WERvAbmFDm9a-24" value="포인트" style="text;strokeColor=none;fillColor=none;align=left;verticalAlign=middle;spacingLeft=4;spacingRight=4;overflow=hidden;points=[[0,0.5],[1,0.5]];portConstraint=eastwest;rotatable=0;" parent="RoAabJP-WERvAbmFDm9a-14" vertex="1">
          <mxGeometry y="270" width="140" height="30" as="geometry" />
        </mxCell>
        <mxCell id="RoAabJP-WERvAbmFDm9a-25" value="이메일" style="text;strokeColor=none;fillColor=none;align=left;verticalAlign=middle;spacingLeft=4;spacingRight=4;overflow=hidden;points=[[0,0.5],[1,0.5]];portConstraint=eastwest;rotatable=0;" parent="RoAabJP-WERvAbmFDm9a-14" vertex="1">
          <mxGeometry y="300" width="140" height="30" as="geometry" />
        </mxCell>
        <mxCell id="eux5ETpcmqmiEMaok0SH-2" value="선호장르" style="text;strokeColor=none;fillColor=none;align=left;verticalAlign=middle;spacingLeft=4;spacingRight=4;overflow=hidden;points=[[0,0.5],[1,0.5]];portConstraint=eastwest;rotatable=0;" parent="RoAabJP-WERvAbmFDm9a-14" vertex="1">
          <mxGeometry y="330" width="140" height="30" as="geometry" />
        </mxCell>
        <mxCell id="WYWjUhm8YObNl2KhzV3R-149" value="시설물" style="swimlane;fontStyle=0;childLayout=stackLayout;horizontal=1;startSize=30;horizontalStack=0;resizeParent=1;resizeParentMax=0;resizeLast=0;collapsible=1;marginBottom=0;" parent="1" vertex="1">
          <mxGeometry x="1820" y="570" width="140" height="90" as="geometry" />
        </mxCell>
        <mxCell id="WYWjUhm8YObNl2KhzV3R-150" value="시설물 번호" style="text;strokeColor=none;fillColor=none;align=left;verticalAlign=middle;spacingLeft=4;spacingRight=4;overflow=hidden;points=[[0,0.5],[1,0.5]];portConstraint=eastwest;rotatable=0;fontStyle=4" parent="WYWjUhm8YObNl2KhzV3R-149" vertex="1">
          <mxGeometry y="30" width="140" height="30" as="geometry" />
        </mxCell>
        <mxCell id="2ric9XNbPDOC2nrLQo_Z-4" value="시설물 명" style="text;strokeColor=none;fillColor=none;align=left;verticalAlign=middle;spacingLeft=4;spacingRight=4;overflow=hidden;points=[[0,0.5],[1,0.5]];portConstraint=eastwest;rotatable=0;" parent="WYWjUhm8YObNl2KhzV3R-149" vertex="1">
          <mxGeometry y="60" width="140" height="30" as="geometry" />
        </mxCell>
        <mxCell id="cKguODEbhtYFb7qhuA4d-1" value="쿠폰함" style="swimlane;fontStyle=0;childLayout=stackLayout;horizontal=1;startSize=30;horizontalStack=0;resizeParent=1;resizeParentMax=0;resizeLast=0;collapsible=1;marginBottom=0;" parent="1" vertex="1">
          <mxGeometry x="590" y="950" width="140" height="150" as="geometry" />
        </mxCell>
        <mxCell id="cKguODEbhtYFb7qhuA4d-2" value="쿠폰함 ID" style="text;strokeColor=none;fillColor=none;align=left;verticalAlign=middle;spacingLeft=4;spacingRight=4;overflow=hidden;points=[[0,0.5],[1,0.5]];portConstraint=eastwest;rotatable=0;fontStyle=4" parent="cKguODEbhtYFb7qhuA4d-1" vertex="1">
          <mxGeometry y="30" width="140" height="30" as="geometry" />
        </mxCell>
        <mxCell id="yif0Wcix96Lz_UaRE6Wn-1" value="쿠폰명" style="text;strokeColor=none;fillColor=none;align=left;verticalAlign=middle;spacingLeft=4;spacingRight=4;overflow=hidden;points=[[0,0.5],[1,0.5]];portConstraint=eastwest;rotatable=0;" parent="cKguODEbhtYFb7qhuA4d-1" vertex="1">
          <mxGeometry y="60" width="140" height="30" as="geometry" />
        </mxCell>
        <mxCell id="yif0Wcix96Lz_UaRE6Wn-2" value="유효기간" style="text;strokeColor=none;fillColor=none;align=left;verticalAlign=middle;spacingLeft=4;spacingRight=4;overflow=hidden;points=[[0,0.5],[1,0.5]];portConstraint=eastwest;rotatable=0;" parent="cKguODEbhtYFb7qhuA4d-1" vertex="1">
          <mxGeometry y="90" width="140" height="30" as="geometry" />
        </mxCell>
        <mxCell id="yif0Wcix96Lz_UaRE6Wn-3" value="쿠폰 내용" style="text;strokeColor=none;fillColor=none;align=left;verticalAlign=middle;spacingLeft=4;spacingRight=4;overflow=hidden;points=[[0,0.5],[1,0.5]];portConstraint=eastwest;rotatable=0;" parent="cKguODEbhtYFb7qhuA4d-1" vertex="1">
          <mxGeometry y="120" width="140" height="30" as="geometry" />
        </mxCell>
        <mxCell id="gwUpILcomhVhb_27Gu5M-5" value="판매 물품목록" style="swimlane;fontStyle=0;childLayout=stackLayout;horizontal=1;startSize=30;horizontalStack=0;resizeParent=1;resizeParentMax=0;resizeLast=0;collapsible=1;marginBottom=0;" parent="1" vertex="1">
          <mxGeometry x="1890" y="200" width="140" height="210" as="geometry" />
        </mxCell>
        <mxCell id="gwUpILcomhVhb_27Gu5M-6" value="물품 번호" style="text;strokeColor=none;fillColor=none;align=left;verticalAlign=middle;spacingLeft=4;spacingRight=4;overflow=hidden;points=[[0,0.5],[1,0.5]];portConstraint=eastwest;rotatable=0;fontStyle=4" parent="gwUpILcomhVhb_27Gu5M-5" vertex="1">
          <mxGeometry y="30" width="140" height="30" as="geometry" />
        </mxCell>
        <mxCell id="gwUpILcomhVhb_27Gu5M-7" value="물품명" style="text;strokeColor=none;fillColor=none;align=left;verticalAlign=middle;spacingLeft=4;spacingRight=4;overflow=hidden;points=[[0,0.5],[1,0.5]];portConstraint=eastwest;rotatable=0;" parent="gwUpILcomhVhb_27Gu5M-5" vertex="1">
          <mxGeometry y="60" width="140" height="30" as="geometry" />
        </mxCell>
        <mxCell id="yif0Wcix96Lz_UaRE6Wn-43" value="물품 설명" style="text;strokeColor=none;fillColor=none;align=left;verticalAlign=middle;spacingLeft=4;spacingRight=4;overflow=hidden;points=[[0,0.5],[1,0.5]];portConstraint=eastwest;rotatable=0;" parent="gwUpILcomhVhb_27Gu5M-5" vertex="1">
          <mxGeometry y="90" width="140" height="30" as="geometry" />
        </mxCell>
        <mxCell id="gwUpILcomhVhb_27Gu5M-8" value="재고" style="text;strokeColor=none;fillColor=none;align=left;verticalAlign=middle;spacingLeft=4;spacingRight=4;overflow=hidden;points=[[0,0.5],[1,0.5]];portConstraint=eastwest;rotatable=0;" parent="gwUpILcomhVhb_27Gu5M-5" vertex="1">
          <mxGeometry y="120" width="140" height="30" as="geometry" />
        </mxCell>
        <mxCell id="gwUpILcomhVhb_27Gu5M-9" value="원가" style="text;strokeColor=none;fillColor=none;align=left;verticalAlign=middle;spacingLeft=4;spacingRight=4;overflow=hidden;points=[[0,0.5],[1,0.5]];portConstraint=eastwest;rotatable=0;" parent="gwUpILcomhVhb_27Gu5M-5" vertex="1">
          <mxGeometry y="150" width="140" height="30" as="geometry" />
        </mxCell>
        <mxCell id="zqSdYx53ZZpXEfOoCQmj-10" value="판매가" style="text;strokeColor=none;fillColor=none;align=left;verticalAlign=middle;spacingLeft=4;spacingRight=4;overflow=hidden;points=[[0,0.5],[1,0.5]];portConstraint=eastwest;rotatable=0;" parent="gwUpILcomhVhb_27Gu5M-5" vertex="1">
          <mxGeometry y="180" width="140" height="30" as="geometry" />
        </mxCell>
        <mxCell id="eux5ETpcmqmiEMaok0SH-16" value="" style="endArrow=classic;html=1;rounded=0;entryX=0;entryY=0.5;entryDx=0;entryDy=0;exitX=1;exitY=0.5;exitDx=0;exitDy=0;" parent="1" source="WYWjUhm8YObNl2KhzV3R-25" target="WYWjUhm8YObNl2KhzV3R-63" edge="1">
          <mxGeometry width="50" height="50" relative="1" as="geometry">
            <mxPoint x="1510" y="950" as="sourcePoint" />
            <mxPoint x="1560" y="900" as="targetPoint" />
          </mxGeometry>
        </mxCell>
        <mxCell id="WYWjUhm8YObNl2KhzV3R-4" value="예매내역" style="swimlane;fontStyle=0;childLayout=stackLayout;horizontal=1;startSize=30;horizontalStack=0;resizeParent=1;resizeParentMax=0;resizeLast=0;collapsible=1;marginBottom=0;" parent="1" vertex="1">
          <mxGeometry x="979" y="430" width="140" height="270" as="geometry" />
        </mxCell>
        <mxCell id="WYWjUhm8YObNl2KhzV3R-5" value="예매 번호" style="text;strokeColor=none;fillColor=none;align=left;verticalAlign=middle;spacingLeft=4;spacingRight=4;overflow=hidden;points=[[0,0.5],[1,0.5]];portConstraint=eastwest;rotatable=0;fontStyle=4" parent="WYWjUhm8YObNl2KhzV3R-4" vertex="1">
          <mxGeometry y="30" width="140" height="30" as="geometry" />
        </mxCell>
        <mxCell id="eux5ETpcmqmiEMaok0SH-20" value="예매 일시" style="text;strokeColor=none;fillColor=none;align=left;verticalAlign=middle;spacingLeft=4;spacingRight=4;overflow=hidden;points=[[0,0.5],[1,0.5]];portConstraint=eastwest;rotatable=0;" parent="WYWjUhm8YObNl2KhzV3R-4" vertex="1">
          <mxGeometry y="60" width="140" height="30" as="geometry" />
        </mxCell>
        <mxCell id="zI3FBDW7Pap5S3CXbZqt-1" value="영화명" style="text;strokeColor=none;fillColor=none;align=left;verticalAlign=middle;spacingLeft=4;spacingRight=4;overflow=hidden;points=[[0,0.5],[1,0.5]];portConstraint=eastwest;rotatable=0;" parent="WYWjUhm8YObNl2KhzV3R-4" vertex="1">
          <mxGeometry y="90" width="140" height="30" as="geometry" />
        </mxCell>
        <mxCell id="zI3FBDW7Pap5S3CXbZqt-2" value="관람 일시" style="text;strokeColor=none;fillColor=none;align=left;verticalAlign=middle;spacingLeft=4;spacingRight=4;overflow=hidden;points=[[0,0.5],[1,0.5]];portConstraint=eastwest;rotatable=0;" parent="WYWjUhm8YObNl2KhzV3R-4" vertex="1">
          <mxGeometry y="120" width="140" height="30" as="geometry" />
        </mxCell>
        <mxCell id="zI3FBDW7Pap5S3CXbZqt-3" value="매장명" style="text;strokeColor=none;fillColor=none;align=left;verticalAlign=middle;spacingLeft=4;spacingRight=4;overflow=hidden;points=[[0,0.5],[1,0.5]];portConstraint=eastwest;rotatable=0;" parent="WYWjUhm8YObNl2KhzV3R-4" vertex="1">
          <mxGeometry y="150" width="140" height="30" as="geometry" />
        </mxCell>
        <mxCell id="WYWjUhm8YObNl2KhzV3R-105" value="상영관" style="text;strokeColor=none;fillColor=none;align=left;verticalAlign=middle;spacingLeft=4;spacingRight=4;overflow=hidden;points=[[0,0.5],[1,0.5]];portConstraint=eastwest;rotatable=0;" parent="WYWjUhm8YObNl2KhzV3R-4" vertex="1">
          <mxGeometry y="180" width="140" height="30" as="geometry" />
        </mxCell>
        <mxCell id="WYWjUhm8YObNl2KhzV3R-8" value="좌석" style="text;strokeColor=none;fillColor=none;align=left;verticalAlign=middle;spacingLeft=4;spacingRight=4;overflow=hidden;points=[[0,0.5],[1,0.5]];portConstraint=eastwest;rotatable=0;" parent="WYWjUhm8YObNl2KhzV3R-4" vertex="1">
          <mxGeometry y="210" width="140" height="30" as="geometry" />
        </mxCell>
        <mxCell id="0jpGqaHGPof7GPKdyG1Q-5" value="인원" style="text;strokeColor=none;fillColor=none;align=left;verticalAlign=middle;spacingLeft=4;spacingRight=4;overflow=hidden;points=[[0,0.5],[1,0.5]];portConstraint=eastwest;rotatable=0;" parent="WYWjUhm8YObNl2KhzV3R-4" vertex="1">
          <mxGeometry y="240" width="140" height="30" as="geometry" />
        </mxCell>
        <mxCell id="eux5ETpcmqmiEMaok0SH-21" value="" style="endArrow=classic;html=1;rounded=0;entryX=0;entryY=0.833;entryDx=0;entryDy=0;entryPerimeter=0;exitX=1;exitY=0.5;exitDx=0;exitDy=0;" parent="1" source="WYWjUhm8YObNl2KhzV3R-35" target="zI3FBDW7Pap5S3CXbZqt-2" edge="1">
          <mxGeometry width="50" height="50" relative="1" as="geometry">
            <mxPoint x="770" y="900" as="sourcePoint" />
            <mxPoint x="820" y="850" as="targetPoint" />
          </mxGeometry>
        </mxCell>
        <mxCell id="eux5ETpcmqmiEMaok0SH-22" value="" style="endArrow=classic;html=1;rounded=0;entryX=0.567;entryY=-0.007;entryDx=0;entryDy=0;entryPerimeter=0;exitX=0.5;exitY=1;exitDx=0;exitDy=0;" parent="1" source="WYWjUhm8YObNl2KhzV3R-35" target="RoAabJP-WERvAbmFDm9a-14" edge="1">
          <mxGeometry width="50" height="50" relative="1" as="geometry">
            <mxPoint x="830" y="640" as="sourcePoint" />
            <mxPoint x="830" y="740" as="targetPoint" />
          </mxGeometry>
        </mxCell>
        <mxCell id="eux5ETpcmqmiEMaok0SH-39" value="게시" style="rhombus;whiteSpace=wrap;html=1;" parent="1" vertex="1">
          <mxGeometry x="1654" y="1070.5" width="80" height="40" as="geometry" />
        </mxCell>
        <mxCell id="eux5ETpcmqmiEMaok0SH-51" value="소유" style="rhombus;whiteSpace=wrap;html=1;" parent="1" vertex="1">
          <mxGeometry x="620" y="860" width="80" height="35" as="geometry" />
        </mxCell>
        <mxCell id="eux5ETpcmqmiEMaok0SH-52" value="" style="endArrow=classic;html=1;rounded=0;exitX=1;exitY=0.5;exitDx=0;exitDy=0;entryX=0;entryY=0.5;entryDx=0;entryDy=0;" parent="1" source="eux5ETpcmqmiEMaok0SH-51" target="RoAabJP-WERvAbmFDm9a-18" edge="1">
          <mxGeometry width="50" height="50" relative="1" as="geometry">
            <mxPoint x="600" y="940" as="sourcePoint" />
            <mxPoint x="820" y="1110" as="targetPoint" />
          </mxGeometry>
        </mxCell>
        <mxCell id="eux5ETpcmqmiEMaok0SH-53" value="" style="endArrow=classic;html=1;rounded=0;entryX=0.5;entryY=0;entryDx=0;entryDy=0;" parent="1" source="eux5ETpcmqmiEMaok0SH-51" target="cKguODEbhtYFb7qhuA4d-1" edge="1">
          <mxGeometry width="50" height="50" relative="1" as="geometry">
            <mxPoint x="600" y="940" as="sourcePoint" />
            <mxPoint x="510" y="868" as="targetPoint" />
          </mxGeometry>
        </mxCell>
        <mxCell id="eux5ETpcmqmiEMaok0SH-57" value="고용" style="rhombus;whiteSpace=wrap;html=1;" parent="1" vertex="1">
          <mxGeometry x="2580" y="877.5" width="80" height="30" as="geometry" />
        </mxCell>
        <mxCell id="eux5ETpcmqmiEMaok0SH-59" value="" style="endArrow=classic;html=1;rounded=0;exitX=0;exitY=0.5;exitDx=0;exitDy=0;entryX=1;entryY=0.5;entryDx=0;entryDy=0;" parent="1" source="eux5ETpcmqmiEMaok0SH-57" target="WYWjUhm8YObNl2KhzV3R-67" edge="1">
          <mxGeometry width="50" height="50" relative="1" as="geometry">
            <mxPoint x="1774" y="980" as="sourcePoint" />
            <mxPoint x="2034" y="830" as="targetPoint" />
          </mxGeometry>
        </mxCell>
        <mxCell id="eux5ETpcmqmiEMaok0SH-60" value="소속" style="rhombus;whiteSpace=wrap;html=1;" parent="1" vertex="1">
          <mxGeometry x="2740" y="1005" width="80" height="40" as="geometry" />
        </mxCell>
        <mxCell id="eux5ETpcmqmiEMaok0SH-62" value="" style="endArrow=classic;html=1;rounded=0;exitX=0.5;exitY=1;exitDx=0;exitDy=0;entryX=0.5;entryY=0;entryDx=0;entryDy=0;" parent="1" source="eux5ETpcmqmiEMaok0SH-60" target="WYWjUhm8YObNl2KhzV3R-83" edge="1">
          <mxGeometry width="50" height="50" relative="1" as="geometry">
            <mxPoint x="2510" y="843" as="sourcePoint" />
            <mxPoint x="3010" y="943" as="targetPoint" />
          </mxGeometry>
        </mxCell>
        <mxCell id="eux5ETpcmqmiEMaok0SH-110" value="판매" style="rhombus;whiteSpace=wrap;html=1;" parent="1" vertex="1">
          <mxGeometry x="1910" y="470" width="80" height="30" as="geometry" />
        </mxCell>
        <mxCell id="eux5ETpcmqmiEMaok0SH-112" value="" style="endArrow=classic;html=1;rounded=0;exitX=0.5;exitY=1;exitDx=0;exitDy=0;" parent="1" source="eux5ETpcmqmiEMaok0SH-110" edge="1">
          <mxGeometry width="50" height="50" relative="1" as="geometry">
            <mxPoint x="1834" y="370" as="sourcePoint" />
            <mxPoint x="1930" y="570" as="targetPoint" />
          </mxGeometry>
        </mxCell>
        <mxCell id="eux5ETpcmqmiEMaok0SH-113" value="보유" style="rhombus;whiteSpace=wrap;html=1;" parent="1" vertex="1">
          <mxGeometry x="1894" y="1470" width="80" height="50" as="geometry" />
        </mxCell>
        <mxCell id="eux5ETpcmqmiEMaok0SH-114" value="" style="endArrow=classic;html=1;rounded=0;exitX=0.5;exitY=0;exitDx=0;exitDy=0;entryX=0.526;entryY=1.072;entryDx=0;entryDy=0;entryPerimeter=0;" parent="1" source="eux5ETpcmqmiEMaok0SH-113" edge="1" target="eux5ETpcmqmiEMaok0SH-3">
          <mxGeometry width="50" height="50" relative="1" as="geometry">
            <mxPoint x="1764" y="1120" as="sourcePoint" />
            <mxPoint x="1970" y="975" as="targetPoint" />
          </mxGeometry>
        </mxCell>
        <mxCell id="eux5ETpcmqmiEMaok0SH-120" value="보유" style="rhombus;whiteSpace=wrap;html=1;direction=east;" parent="1" vertex="1">
          <mxGeometry x="2040" y="1630" width="65" height="30" as="geometry" />
        </mxCell>
        <mxCell id="eux5ETpcmqmiEMaok0SH-130" value="" style="endArrow=classic;html=1;rounded=0;exitX=0;exitY=0.5;exitDx=0;exitDy=0;entryX=1.005;entryY=0.846;entryDx=0;entryDy=0;entryPerimeter=0;" parent="1" source="eux5ETpcmqmiEMaok0SH-120" target="WYWjUhm8YObNl2KhzV3R-50" edge="1">
          <mxGeometry width="50" height="50" relative="1" as="geometry">
            <mxPoint x="1715" y="1182.5" as="sourcePoint" />
            <mxPoint x="2014.0199999999995" y="1198.5" as="targetPoint" />
          </mxGeometry>
        </mxCell>
        <mxCell id="jJHxwszTaSCLHfT5Mx06-6" value="보유" style="rhombus;whiteSpace=wrap;html=1;" parent="1" vertex="1">
          <mxGeometry x="1844" y="690" width="80" height="30" as="geometry" />
        </mxCell>
        <mxCell id="jJHxwszTaSCLHfT5Mx06-8" value="" style="endArrow=classic;html=1;rounded=0;exitX=0.5;exitY=1;exitDx=0;exitDy=0;entryX=0.5;entryY=0;entryDx=0;entryDy=0;" parent="1" source="jJHxwszTaSCLHfT5Mx06-6" target="WYWjUhm8YObNl2KhzV3R-62" edge="1">
          <mxGeometry width="50" height="50" relative="1" as="geometry">
            <mxPoint x="1688" y="920" as="sourcePoint" />
            <mxPoint x="1738" y="870" as="targetPoint" />
          </mxGeometry>
        </mxCell>
        <mxCell id="o4JPERYct8yEn4MppSKi-7" value="결제내역" style="swimlane;fontStyle=0;childLayout=stackLayout;horizontal=1;startSize=30;horizontalStack=0;resizeParent=1;resizeParentMax=0;resizeLast=0;collapsible=1;marginBottom=0;" parent="1" vertex="1">
          <mxGeometry x="1270" y="435" width="140" height="150" as="geometry" />
        </mxCell>
        <mxCell id="o4JPERYct8yEn4MppSKi-9" value="결제 번호" style="text;strokeColor=none;fillColor=none;align=left;verticalAlign=middle;spacingLeft=4;spacingRight=4;overflow=hidden;points=[[0,0.5],[1,0.5]];portConstraint=eastwest;rotatable=0;fontStyle=4" parent="o4JPERYct8yEn4MppSKi-7" vertex="1">
          <mxGeometry y="30" width="140" height="30" as="geometry" />
        </mxCell>
        <mxCell id="o4JPERYct8yEn4MppSKi-10" value="결제 금액" style="text;strokeColor=none;fillColor=none;align=left;verticalAlign=middle;spacingLeft=4;spacingRight=4;overflow=hidden;points=[[0,0.5],[1,0.5]];portConstraint=eastwest;rotatable=0;" parent="o4JPERYct8yEn4MppSKi-7" vertex="1">
          <mxGeometry y="60" width="140" height="30" as="geometry" />
        </mxCell>
        <mxCell id="o4JPERYct8yEn4MppSKi-11" value="결제 방법" style="text;strokeColor=none;fillColor=none;align=left;verticalAlign=middle;spacingLeft=4;spacingRight=4;overflow=hidden;points=[[0,0.5],[1,0.5]];portConstraint=eastwest;rotatable=0;" parent="o4JPERYct8yEn4MppSKi-7" vertex="1">
          <mxGeometry y="90" width="140" height="30" as="geometry" />
        </mxCell>
        <mxCell id="3m0YeJqMSCZppq5FuRip-23" value="쿠폰 사용 유무" style="text;strokeColor=none;fillColor=none;align=left;verticalAlign=middle;spacingLeft=4;spacingRight=4;overflow=hidden;points=[[0,0.5],[1,0.5]];portConstraint=eastwest;rotatable=0;" parent="o4JPERYct8yEn4MppSKi-7" vertex="1">
          <mxGeometry y="120" width="140" height="30" as="geometry" />
        </mxCell>
        <mxCell id="3m0YeJqMSCZppq5FuRip-2" value="컴플레인" style="shape=rhombus;perimeter=rhombusPerimeter;whiteSpace=wrap;html=1;align=center;" parent="1" vertex="1">
          <mxGeometry x="1119" y="890" width="80" height="55" as="geometry" />
        </mxCell>
        <mxCell id="3m0YeJqMSCZppq5FuRip-5" value="" style="endArrow=classic;html=1;rounded=0;exitX=1;exitY=0.5;exitDx=0;exitDy=0;entryX=0;entryY=0.5;entryDx=0;entryDy=0;" parent="1" source="3m0YeJqMSCZppq5FuRip-2" target="WYWjUhm8YObNl2KhzV3R-67" edge="1">
          <mxGeometry width="50" height="50" relative="1" as="geometry">
            <mxPoint x="1540" y="870" as="sourcePoint" />
            <mxPoint x="1860" y="870" as="targetPoint" />
          </mxGeometry>
        </mxCell>
        <mxCell id="3m0YeJqMSCZppq5FuRip-15" value="" style="endArrow=classic;html=1;rounded=0;exitX=1;exitY=0.5;exitDx=0;exitDy=0;entryX=0;entryY=0.817;entryDx=0;entryDy=0;entryPerimeter=0;" parent="1" source="eux5ETpcmqmiEMaok0SH-39" target="yif0Wcix96Lz_UaRE6Wn-46" edge="1">
          <mxGeometry width="50" height="50" relative="1" as="geometry">
            <mxPoint x="1634" y="1075" as="sourcePoint" />
            <mxPoint x="1764" y="1012.5" as="targetPoint" />
          </mxGeometry>
        </mxCell>
        <mxCell id="3m0YeJqMSCZppq5FuRip-17" value="시설물&lt;br&gt;파트" style="text;strokeColor=none;fillColor=none;html=1;fontSize=24;fontStyle=1;verticalAlign=middle;align=center;" parent="1" vertex="1">
          <mxGeometry x="1984" y="540" width="100" height="10" as="geometry" />
        </mxCell>
        <mxCell id="3m0YeJqMSCZppq5FuRip-18" value="고객&lt;br&gt;파트" style="text;strokeColor=none;fillColor=none;html=1;fontSize=24;fontStyle=1;verticalAlign=middle;align=center;" parent="1" vertex="1">
          <mxGeometry x="930" y="982.5" width="100" height="40" as="geometry" />
        </mxCell>
        <mxCell id="3m0YeJqMSCZppq5FuRip-19" value="매장&lt;br&gt;파트" style="text;strokeColor=none;fillColor=none;html=1;fontSize=24;fontStyle=1;verticalAlign=middle;align=center;" parent="1" vertex="1">
          <mxGeometry x="1730" y="1162.5" width="100" height="40" as="geometry" />
        </mxCell>
        <mxCell id="3m0YeJqMSCZppq5FuRip-20" value="직원&lt;br&gt;파트" style="text;strokeColor=none;fillColor=none;html=1;fontSize=24;fontStyle=1;verticalAlign=middle;align=center;" parent="1" vertex="1">
          <mxGeometry x="2580" y="815" width="100" height="40" as="geometry" />
        </mxCell>
        <mxCell id="3m0YeJqMSCZppq5FuRip-21" value="상영관&lt;br&gt;파트" style="text;strokeColor=none;fillColor=none;html=1;fontSize=24;fontStyle=1;verticalAlign=middle;align=center;" parent="1" vertex="1">
          <mxGeometry x="1885" y="1750" width="100" height="40" as="geometry" />
        </mxCell>
        <mxCell id="AJYPJxhGgQch8o5Ft-p9-22" value="컴플레인" style="swimlane;fontStyle=0;childLayout=stackLayout;horizontal=1;startSize=30;horizontalStack=0;resizeParent=1;resizeParentMax=0;resizeLast=0;collapsible=1;marginBottom=0;" parent="1" vertex="1">
          <mxGeometry x="1089" y="988" width="140" height="150" as="geometry" />
        </mxCell>
        <mxCell id="AJYPJxhGgQch8o5Ft-p9-23" value="접수 번호" style="text;strokeColor=none;fillColor=none;align=left;verticalAlign=middle;spacingLeft=4;spacingRight=4;overflow=hidden;points=[[0,0.5],[1,0.5]];portConstraint=eastwest;rotatable=0;fontStyle=4" parent="AJYPJxhGgQch8o5Ft-p9-22" vertex="1">
          <mxGeometry y="30" width="140" height="30" as="geometry" />
        </mxCell>
        <mxCell id="AJYPJxhGgQch8o5Ft-p9-24" value="제목" style="text;strokeColor=none;fillColor=none;align=left;verticalAlign=middle;spacingLeft=4;spacingRight=4;overflow=hidden;points=[[0,0.5],[1,0.5]];portConstraint=eastwest;rotatable=0;" parent="AJYPJxhGgQch8o5Ft-p9-22" vertex="1">
          <mxGeometry y="60" width="140" height="30" as="geometry" />
        </mxCell>
        <mxCell id="AJYPJxhGgQch8o5Ft-p9-25" value="내용" style="text;strokeColor=none;fillColor=none;align=left;verticalAlign=middle;spacingLeft=4;spacingRight=4;overflow=hidden;points=[[0,0.5],[1,0.5]];portConstraint=eastwest;rotatable=0;" parent="AJYPJxhGgQch8o5Ft-p9-22" vertex="1">
          <mxGeometry y="90" width="140" height="30" as="geometry" />
        </mxCell>
        <mxCell id="AJYPJxhGgQch8o5Ft-p9-28" value="접수일" style="text;strokeColor=none;fillColor=none;align=left;verticalAlign=middle;spacingLeft=4;spacingRight=4;overflow=hidden;points=[[0,0.5],[1,0.5]];portConstraint=eastwest;rotatable=0;" parent="AJYPJxhGgQch8o5Ft-p9-22" vertex="1">
          <mxGeometry y="120" width="140" height="30" as="geometry" />
        </mxCell>
        <mxCell id="AJYPJxhGgQch8o5Ft-p9-27" value="" style="endArrow=none;dashed=1;html=1;dashPattern=1 3;strokeWidth=2;rounded=0;entryX=0.5;entryY=1;entryDx=0;entryDy=0;exitX=0.5;exitY=0;exitDx=0;exitDy=0;" parent="1" source="AJYPJxhGgQch8o5Ft-p9-22" target="3m0YeJqMSCZppq5FuRip-2" edge="1">
          <mxGeometry width="50" height="50" relative="1" as="geometry">
            <mxPoint x="1300" y="1020" as="sourcePoint" />
            <mxPoint x="1350" y="970" as="targetPoint" />
          </mxGeometry>
        </mxCell>
        <mxCell id="yif0Wcix96Lz_UaRE6Wn-6" value="" style="endArrow=none;html=1;rounded=0;exitX=1.008;exitY=0.961;exitDx=0;exitDy=0;exitPerimeter=0;entryX=0;entryY=0.5;entryDx=0;entryDy=0;" parent="1" source="RoAabJP-WERvAbmFDm9a-17" target="WYWjUhm8YObNl2KhzV3R-25" edge="1">
          <mxGeometry width="50" height="50" relative="1" as="geometry">
            <mxPoint x="1070" y="990" as="sourcePoint" />
            <mxPoint x="1120" y="940" as="targetPoint" />
          </mxGeometry>
        </mxCell>
        <mxCell id="Qv-FmLyA0oH0V-novtGH-1" value="" style="endArrow=none;dashed=1;html=1;rounded=0;exitX=0.5;exitY=0;exitDx=0;exitDy=0;entryX=0.727;entryY=1.145;entryDx=0;entryDy=0;entryPerimeter=0;" parent="1" source="WYWjUhm8YObNl2KhzV3R-25" target="0jpGqaHGPof7GPKdyG1Q-5" edge="1">
          <mxGeometry width="50" height="50" relative="1" as="geometry">
            <mxPoint x="760" y="830" as="sourcePoint" />
            <mxPoint x="810" y="780" as="targetPoint" />
          </mxGeometry>
        </mxCell>
        <mxCell id="yif0Wcix96Lz_UaRE6Wn-7" value="" style="endArrow=none;html=1;rounded=0;exitX=1.008;exitY=0.128;exitDx=0;exitDy=0;exitPerimeter=0;entryX=0;entryY=0.5;entryDx=0;entryDy=0;" parent="1" source="RoAabJP-WERvAbmFDm9a-20" target="3m0YeJqMSCZppq5FuRip-2" edge="1">
          <mxGeometry width="50" height="50" relative="1" as="geometry">
            <mxPoint x="1070" y="990" as="sourcePoint" />
            <mxPoint x="1120" y="940" as="targetPoint" />
          </mxGeometry>
        </mxCell>
        <mxCell id="Qv-FmLyA0oH0V-novtGH-2" value="" style="endArrow=none;dashed=1;html=1;rounded=0;entryX=0;entryY=0.5;entryDx=0;entryDy=0;" parent="1" target="WYWjUhm8YObNl2KhzV3R-35" edge="1">
          <mxGeometry width="50" height="50" relative="1" as="geometry">
            <mxPoint x="670" y="568" as="sourcePoint" />
            <mxPoint x="490" y="580" as="targetPoint" />
          </mxGeometry>
        </mxCell>
        <mxCell id="yif0Wcix96Lz_UaRE6Wn-10" value="" style="endArrow=none;html=1;rounded=0;exitX=0.5;exitY=0;exitDx=0;exitDy=0;" parent="1" source="eux5ETpcmqmiEMaok0SH-110" edge="1">
          <mxGeometry width="50" height="50" relative="1" as="geometry">
            <mxPoint x="2047" y="300" as="sourcePoint" />
            <mxPoint x="1950" y="410" as="targetPoint" />
          </mxGeometry>
        </mxCell>
        <mxCell id="yif0Wcix96Lz_UaRE6Wn-16" value="포함" style="rhombus;whiteSpace=wrap;html=1;" parent="1" vertex="1">
          <mxGeometry x="1149" y="490" width="80" height="40" as="geometry" />
        </mxCell>
        <mxCell id="yif0Wcix96Lz_UaRE6Wn-17" value="" style="endArrow=classic;html=1;rounded=0;exitX=0;exitY=0.5;exitDx=0;exitDy=0;entryX=1.004;entryY=0.711;entryDx=0;entryDy=0;entryPerimeter=0;" parent="1" source="yif0Wcix96Lz_UaRE6Wn-16" target="eux5ETpcmqmiEMaok0SH-20" edge="1">
          <mxGeometry width="50" height="50" relative="1" as="geometry">
            <mxPoint x="950" y="830" as="sourcePoint" />
            <mxPoint x="1000" y="780" as="targetPoint" />
          </mxGeometry>
        </mxCell>
        <mxCell id="yif0Wcix96Lz_UaRE6Wn-18" value="" style="endArrow=classic;html=1;rounded=0;entryX=0;entryY=0.5;entryDx=0;entryDy=0;" parent="1" target="o4JPERYct8yEn4MppSKi-10" edge="1">
          <mxGeometry width="50" height="50" relative="1" as="geometry">
            <mxPoint x="1230" y="510" as="sourcePoint" />
            <mxPoint x="1000" y="780" as="targetPoint" />
          </mxGeometry>
        </mxCell>
        <mxCell id="yif0Wcix96Lz_UaRE6Wn-20" value="" style="endArrow=none;html=1;rounded=0;entryX=0;entryY=0.5;entryDx=0;entryDy=0;exitX=0.5;exitY=0;exitDx=0;exitDy=0;" parent="1" source="WYWjUhm8YObNl2KhzV3R-121" target="eux5ETpcmqmiEMaok0SH-39" edge="1">
          <mxGeometry width="50" height="50" relative="1" as="geometry">
            <mxPoint x="1660" y="1202.5" as="sourcePoint" />
            <mxPoint x="1710" y="1152.5" as="targetPoint" />
          </mxGeometry>
        </mxCell>
        <mxCell id="yif0Wcix96Lz_UaRE6Wn-24" value="공지" style="rhombus;whiteSpace=wrap;html=1;" parent="1" vertex="1">
          <mxGeometry x="1996" y="1005" width="80" height="40" as="geometry" />
        </mxCell>
        <mxCell id="yif0Wcix96Lz_UaRE6Wn-25" value="" style="endArrow=classic;html=1;rounded=0;exitX=0;exitY=0.5;exitDx=0;exitDy=0;entryX=1.007;entryY=0.783;entryDx=0;entryDy=0;entryPerimeter=0;" parent="1" source="yif0Wcix96Lz_UaRE6Wn-24" target="WYWjUhm8YObNl2KhzV3R-68" edge="1">
          <mxGeometry width="50" height="50" relative="1" as="geometry">
            <mxPoint x="1960" y="1252.5" as="sourcePoint" />
            <mxPoint x="2010" y="1202.5" as="targetPoint" />
          </mxGeometry>
        </mxCell>
        <mxCell id="yif0Wcix96Lz_UaRE6Wn-28" value="" style="endArrow=classic;html=1;rounded=0;exitX=1;exitY=0.5;exitDx=0;exitDy=0;entryX=0;entryY=0.5;entryDx=0;entryDy=0;" parent="1" source="yif0Wcix96Lz_UaRE6Wn-24" target="WYWjUhm8YObNl2KhzV3R-44" edge="1">
          <mxGeometry width="50" height="50" relative="1" as="geometry">
            <mxPoint x="1920" y="1362.5" as="sourcePoint" />
            <mxPoint x="2090.9799999999996" y="1032.5100000000002" as="targetPoint" />
            <Array as="points" />
          </mxGeometry>
        </mxCell>
        <mxCell id="yif0Wcix96Lz_UaRE6Wn-30" value="상영" style="rhombus;whiteSpace=wrap;html=1;" parent="1" vertex="1">
          <mxGeometry x="1744" y="1620" width="80" height="40" as="geometry" />
        </mxCell>
        <mxCell id="yif0Wcix96Lz_UaRE6Wn-32" value="" style="endArrow=none;html=1;rounded=0;entryX=1;entryY=0.5;entryDx=0;entryDy=0;exitX=-0.004;exitY=0.754;exitDx=0;exitDy=0;exitPerimeter=0;" parent="1" source="WYWjUhm8YObNl2KhzV3R-50" target="yif0Wcix96Lz_UaRE6Wn-30" edge="1">
          <mxGeometry width="50" height="50" relative="1" as="geometry">
            <mxPoint x="1875" y="1192.5" as="sourcePoint" />
            <mxPoint x="2045" y="882.5" as="targetPoint" />
          </mxGeometry>
        </mxCell>
        <mxCell id="yif0Wcix96Lz_UaRE6Wn-37" value="추천" style="rhombus;whiteSpace=wrap;html=1;" parent="1" vertex="1">
          <mxGeometry x="1430" y="1500" width="80" height="40" as="geometry" />
        </mxCell>
        <mxCell id="yif0Wcix96Lz_UaRE6Wn-38" value="" style="endArrow=classic;html=1;rounded=0;entryX=1.013;entryY=-0.085;entryDx=0;entryDy=0;exitX=0;exitY=0.5;exitDx=0;exitDy=0;entryPerimeter=0;" parent="1" source="yif0Wcix96Lz_UaRE6Wn-37" target="RoAabJP-WERvAbmFDm9a-24" edge="1">
          <mxGeometry width="50" height="50" relative="1" as="geometry">
            <mxPoint x="1240" y="1190" as="sourcePoint" />
            <mxPoint x="1290" y="1140" as="targetPoint" />
          </mxGeometry>
        </mxCell>
        <mxCell id="yif0Wcix96Lz_UaRE6Wn-39" value="" style="endArrow=none;html=1;rounded=0;exitX=1;exitY=0.5;exitDx=0;exitDy=0;entryX=0.003;entryY=0.058;entryDx=0;entryDy=0;entryPerimeter=0;" parent="1" source="yif0Wcix96Lz_UaRE6Wn-37" target="WYWjUhm8YObNl2KhzV3R-15" edge="1">
          <mxGeometry width="50" height="50" relative="1" as="geometry">
            <mxPoint x="1410" y="1000" as="sourcePoint" />
            <mxPoint x="1460" y="950" as="targetPoint" />
          </mxGeometry>
        </mxCell>
        <mxCell id="yif0Wcix96Lz_UaRE6Wn-40" value="" style="endArrow=none;html=1;rounded=0;entryX=0;entryY=0.5;entryDx=0;entryDy=0;" parent="1" source="WYWjUhm8YObNl2KhzV3R-18" target="yif0Wcix96Lz_UaRE6Wn-30" edge="1">
          <mxGeometry width="50" height="50" relative="1" as="geometry">
            <mxPoint x="1304" y="1780" as="sourcePoint" />
            <mxPoint x="1354" y="1730" as="targetPoint" />
          </mxGeometry>
        </mxCell>
        <mxCell id="yif0Wcix96Lz_UaRE6Wn-52" value="" style="endArrow=none;html=1;rounded=0;exitX=0.5;exitY=0;exitDx=0;exitDy=0;entryX=0.457;entryY=0.967;entryDx=0;entryDy=0;entryPerimeter=0;" parent="1" source="jJHxwszTaSCLHfT5Mx06-6" target="2ric9XNbPDOC2nrLQo_Z-4" edge="1">
          <mxGeometry width="50" height="50" relative="1" as="geometry">
            <mxPoint x="1900" y="790" as="sourcePoint" />
            <mxPoint x="1950" y="740" as="targetPoint" />
          </mxGeometry>
        </mxCell>
        <mxCell id="yif0Wcix96Lz_UaRE6Wn-54" value="관리" style="rhombus;whiteSpace=wrap;html=1;" parent="1" vertex="1">
          <mxGeometry x="1800" y="470" width="80" height="30" as="geometry" />
        </mxCell>
        <mxCell id="yif0Wcix96Lz_UaRE6Wn-55" value="" style="endArrow=classic;html=1;rounded=0;exitX=0.5;exitY=1;exitDx=0;exitDy=0;entryX=0.25;entryY=0;entryDx=0;entryDy=0;" parent="1" source="yif0Wcix96Lz_UaRE6Wn-54" target="WYWjUhm8YObNl2KhzV3R-149" edge="1">
          <mxGeometry width="50" height="50" relative="1" as="geometry">
            <mxPoint x="1770" y="630" as="sourcePoint" />
            <mxPoint x="1820" y="580" as="targetPoint" />
          </mxGeometry>
        </mxCell>
        <mxCell id="yif0Wcix96Lz_UaRE6Wn-56" value="관리 물품목록" style="swimlane;fontStyle=0;childLayout=stackLayout;horizontal=1;startSize=30;horizontalStack=0;resizeParent=1;resizeParentMax=0;resizeLast=0;collapsible=1;marginBottom=0;" parent="1" vertex="1">
          <mxGeometry x="1720" y="210" width="140" height="150" as="geometry" />
        </mxCell>
        <mxCell id="yif0Wcix96Lz_UaRE6Wn-57" value="물품 번호" style="text;strokeColor=none;fillColor=none;align=left;verticalAlign=middle;spacingLeft=4;spacingRight=4;overflow=hidden;points=[[0,0.5],[1,0.5]];portConstraint=eastwest;rotatable=0;fontStyle=4" parent="yif0Wcix96Lz_UaRE6Wn-56" vertex="1">
          <mxGeometry y="30" width="140" height="30" as="geometry" />
        </mxCell>
        <mxCell id="yif0Wcix96Lz_UaRE6Wn-58" value="물품명" style="text;strokeColor=none;fillColor=none;align=left;verticalAlign=middle;spacingLeft=4;spacingRight=4;overflow=hidden;points=[[0,0.5],[1,0.5]];portConstraint=eastwest;rotatable=0;" parent="yif0Wcix96Lz_UaRE6Wn-56" vertex="1">
          <mxGeometry y="60" width="140" height="30" as="geometry" />
        </mxCell>
        <mxCell id="yif0Wcix96Lz_UaRE6Wn-59" value="재고" style="text;strokeColor=none;fillColor=none;align=left;verticalAlign=middle;spacingLeft=4;spacingRight=4;overflow=hidden;points=[[0,0.5],[1,0.5]];portConstraint=eastwest;rotatable=0;" parent="yif0Wcix96Lz_UaRE6Wn-56" vertex="1">
          <mxGeometry y="90" width="140" height="30" as="geometry" />
        </mxCell>
        <mxCell id="yif0Wcix96Lz_UaRE6Wn-61" value="고장 갯수" style="text;strokeColor=none;fillColor=none;align=left;verticalAlign=middle;spacingLeft=4;spacingRight=4;overflow=hidden;points=[[0,0.5],[1,0.5]];portConstraint=eastwest;rotatable=0;" parent="yif0Wcix96Lz_UaRE6Wn-56" vertex="1">
          <mxGeometry y="120" width="140" height="30" as="geometry" />
        </mxCell>
        <mxCell id="yif0Wcix96Lz_UaRE6Wn-60" value="" style="endArrow=none;html=1;rounded=0;entryX=0.75;entryY=1.067;entryDx=0;entryDy=0;entryPerimeter=0;" parent="1" target="yif0Wcix96Lz_UaRE6Wn-61" edge="1">
          <mxGeometry width="50" height="50" relative="1" as="geometry">
            <mxPoint x="1840" y="470" as="sourcePoint" />
            <mxPoint x="1774" y="390" as="targetPoint" />
          </mxGeometry>
        </mxCell>
        <mxCell id="zqSdYx53ZZpXEfOoCQmj-5" value="결제" style="rhombus;whiteSpace=wrap;html=1;" parent="1" vertex="1">
          <mxGeometry x="1300" y="730" width="80" height="50" as="geometry" />
        </mxCell>
        <mxCell id="zqSdYx53ZZpXEfOoCQmj-6" value="" style="endArrow=none;dashed=1;html=1;dashPattern=1 3;strokeWidth=2;rounded=0;exitX=0.5;exitY=0;exitDx=0;exitDy=0;" parent="1" source="zqSdYx53ZZpXEfOoCQmj-5" target="3m0YeJqMSCZppq5FuRip-23" edge="1">
          <mxGeometry width="50" height="50" relative="1" as="geometry">
            <mxPoint x="1490" y="650" as="sourcePoint" />
            <mxPoint x="1540" y="600" as="targetPoint" />
          </mxGeometry>
        </mxCell>
        <mxCell id="zqSdYx53ZZpXEfOoCQmj-8" value="" style="endArrow=none;html=1;rounded=0;exitX=0.993;exitY=-0.033;exitDx=0;exitDy=0;exitPerimeter=0;entryX=0;entryY=0.5;entryDx=0;entryDy=0;" parent="1" source="RoAabJP-WERvAbmFDm9a-16" target="zqSdYx53ZZpXEfOoCQmj-5" edge="1">
          <mxGeometry width="50" height="50" relative="1" as="geometry">
            <mxPoint x="1490" y="750" as="sourcePoint" />
            <mxPoint x="1540" y="700" as="targetPoint" />
          </mxGeometry>
        </mxCell>
        <mxCell id="zqSdYx53ZZpXEfOoCQmj-9" value="" style="endArrow=none;html=1;rounded=0;exitX=1;exitY=0.5;exitDx=0;exitDy=0;entryX=0.007;entryY=0.9;entryDx=0;entryDy=0;entryPerimeter=0;" parent="1" source="zqSdYx53ZZpXEfOoCQmj-5" target="2ric9XNbPDOC2nrLQo_Z-4" edge="1">
          <mxGeometry width="50" height="50" relative="1" as="geometry">
            <mxPoint x="1450" y="640" as="sourcePoint" />
            <mxPoint x="1500" y="590" as="targetPoint" />
          </mxGeometry>
        </mxCell>
        <mxCell id="zqSdYx53ZZpXEfOoCQmj-14" value="관리" style="rhombus;whiteSpace=wrap;html=1;" parent="1" vertex="1">
          <mxGeometry x="2410" y="675" width="80" height="40" as="geometry" />
        </mxCell>
        <mxCell id="zqSdYx53ZZpXEfOoCQmj-15" value="" style="endArrow=classic;html=1;rounded=0;exitX=0;exitY=0.5;exitDx=0;exitDy=0;entryX=1.009;entryY=0.107;entryDx=0;entryDy=0;entryPerimeter=0;" parent="1" source="zqSdYx53ZZpXEfOoCQmj-14" target="WYWjUhm8YObNl2KhzV3R-63" edge="1">
          <mxGeometry width="50" height="50" relative="1" as="geometry">
            <mxPoint x="2254" y="930" as="sourcePoint" />
            <mxPoint x="2304" y="880" as="targetPoint" />
          </mxGeometry>
        </mxCell>
        <mxCell id="zqSdYx53ZZpXEfOoCQmj-16" value="" style="endArrow=classic;html=1;rounded=0;entryX=0.003;entryY=0.145;entryDx=0;entryDy=0;entryPerimeter=0;exitX=1;exitY=0.5;exitDx=0;exitDy=0;" parent="1" source="zqSdYx53ZZpXEfOoCQmj-14" target="WYWjUhm8YObNl2KhzV3R-92" edge="1">
          <mxGeometry width="50" height="50" relative="1" as="geometry">
            <mxPoint x="1920" y="830" as="sourcePoint" />
            <mxPoint x="1970" y="780" as="targetPoint" />
          </mxGeometry>
        </mxCell>
        <mxCell id="zqSdYx53ZZpXEfOoCQmj-17" value="체크" style="rhombus;whiteSpace=wrap;html=1;" parent="1" vertex="1">
          <mxGeometry x="2740" y="550" width="80" height="40" as="geometry" />
        </mxCell>
        <mxCell id="zqSdYx53ZZpXEfOoCQmj-18" value="" style="endArrow=classic;html=1;rounded=0;entryX=1;entryY=0.5;entryDx=0;entryDy=0;exitX=0;exitY=0.5;exitDx=0;exitDy=0;" parent="1" source="zqSdYx53ZZpXEfOoCQmj-17" target="WYWjUhm8YObNl2KhzV3R-87" edge="1">
          <mxGeometry width="50" height="50" relative="1" as="geometry">
            <mxPoint x="2410" y="875" as="sourcePoint" />
            <mxPoint x="2460" y="825" as="targetPoint" />
          </mxGeometry>
        </mxCell>
        <mxCell id="zqSdYx53ZZpXEfOoCQmj-39" value="리뷰" style="rhombus;whiteSpace=wrap;html=1;" parent="1" vertex="1">
          <mxGeometry x="1391" y="1590" width="80" height="40" as="geometry" />
        </mxCell>
        <mxCell id="zqSdYx53ZZpXEfOoCQmj-40" value="" style="endArrow=none;html=1;rounded=0;entryX=1;entryY=0.5;entryDx=0;entryDy=0;exitX=0;exitY=0.5;exitDx=0;exitDy=0;" parent="1" source="WYWjUhm8YObNl2KhzV3R-17" target="zqSdYx53ZZpXEfOoCQmj-39" edge="1">
          <mxGeometry width="50" height="50" relative="1" as="geometry">
            <mxPoint x="1380" y="1120" as="sourcePoint" />
            <mxPoint x="1430" y="1070" as="targetPoint" />
          </mxGeometry>
        </mxCell>
        <mxCell id="zqSdYx53ZZpXEfOoCQmj-41" value="" style="endArrow=none;html=1;rounded=0;exitX=1.003;exitY=0.352;exitDx=0;exitDy=0;exitPerimeter=0;entryX=0;entryY=0.5;entryDx=0;entryDy=0;" parent="1" source="eux5ETpcmqmiEMaok0SH-2" target="zqSdYx53ZZpXEfOoCQmj-39" edge="1">
          <mxGeometry width="50" height="50" relative="1" as="geometry">
            <mxPoint x="1410" y="1300" as="sourcePoint" />
            <mxPoint x="1460" y="1250" as="targetPoint" />
          </mxGeometry>
        </mxCell>
        <mxCell id="zqSdYx53ZZpXEfOoCQmj-42" value="리뷰" style="swimlane;fontStyle=0;childLayout=stackLayout;horizontal=1;startSize=30;horizontalStack=0;resizeParent=1;resizeParentMax=0;resizeLast=0;collapsible=1;marginBottom=0;" parent="1" vertex="1">
          <mxGeometry x="1370" y="1660" width="140" height="180" as="geometry" />
        </mxCell>
        <mxCell id="zqSdYx53ZZpXEfOoCQmj-43" value="리뷰 번호" style="text;strokeColor=none;fillColor=none;align=left;verticalAlign=middle;spacingLeft=4;spacingRight=4;overflow=hidden;points=[[0,0.5],[1,0.5]];portConstraint=eastwest;rotatable=0;fontStyle=4" parent="zqSdYx53ZZpXEfOoCQmj-42" vertex="1">
          <mxGeometry y="30" width="140" height="30" as="geometry" />
        </mxCell>
        <mxCell id="zqSdYx53ZZpXEfOoCQmj-44" value="제목" style="text;strokeColor=none;fillColor=none;align=left;verticalAlign=middle;spacingLeft=4;spacingRight=4;overflow=hidden;points=[[0,0.5],[1,0.5]];portConstraint=eastwest;rotatable=0;" parent="zqSdYx53ZZpXEfOoCQmj-42" vertex="1">
          <mxGeometry y="60" width="140" height="30" as="geometry" />
        </mxCell>
        <mxCell id="zqSdYx53ZZpXEfOoCQmj-45" value="내용" style="text;strokeColor=none;fillColor=none;align=left;verticalAlign=middle;spacingLeft=4;spacingRight=4;overflow=hidden;points=[[0,0.5],[1,0.5]];portConstraint=eastwest;rotatable=0;" parent="zqSdYx53ZZpXEfOoCQmj-42" vertex="1">
          <mxGeometry y="90" width="140" height="30" as="geometry" />
        </mxCell>
        <mxCell id="zqSdYx53ZZpXEfOoCQmj-63" value="등록일" style="text;strokeColor=none;fillColor=none;align=left;verticalAlign=middle;spacingLeft=4;spacingRight=4;overflow=hidden;points=[[0,0.5],[1,0.5]];portConstraint=eastwest;rotatable=0;" parent="zqSdYx53ZZpXEfOoCQmj-42" vertex="1">
          <mxGeometry y="120" width="140" height="30" as="geometry" />
        </mxCell>
        <mxCell id="zqSdYx53ZZpXEfOoCQmj-62" value="평점" style="text;strokeColor=none;fillColor=none;align=left;verticalAlign=middle;spacingLeft=4;spacingRight=4;overflow=hidden;points=[[0,0.5],[1,0.5]];portConstraint=eastwest;rotatable=0;" parent="zqSdYx53ZZpXEfOoCQmj-42" vertex="1">
          <mxGeometry y="150" width="140" height="30" as="geometry" />
        </mxCell>
        <mxCell id="zqSdYx53ZZpXEfOoCQmj-64" value="" style="endArrow=none;dashed=1;html=1;dashPattern=1 3;strokeWidth=2;rounded=0;entryX=0.5;entryY=1;entryDx=0;entryDy=0;exitX=0.579;exitY=0;exitDx=0;exitDy=0;exitPerimeter=0;" parent="1" source="zqSdYx53ZZpXEfOoCQmj-42" target="zqSdYx53ZZpXEfOoCQmj-39" edge="1">
          <mxGeometry width="50" height="50" relative="1" as="geometry">
            <mxPoint x="1391" y="1620" as="sourcePoint" />
            <mxPoint x="1441" y="1570" as="targetPoint" />
          </mxGeometry>
        </mxCell>
        <mxCell id="zqSdYx53ZZpXEfOoCQmj-74" value="영화 순위" style="swimlane;fontStyle=0;childLayout=stackLayout;horizontal=1;startSize=30;horizontalStack=0;resizeParent=1;resizeParentMax=0;resizeLast=0;collapsible=1;marginBottom=0;" parent="1" vertex="1">
          <mxGeometry x="1990" y="1145" width="140" height="180" as="geometry" />
        </mxCell>
        <mxCell id="zqSdYx53ZZpXEfOoCQmj-75" value="날짜" style="text;strokeColor=none;fillColor=none;align=left;verticalAlign=middle;spacingLeft=4;spacingRight=4;overflow=hidden;points=[[0,0.5],[1,0.5]];portConstraint=eastwest;rotatable=0;fontStyle=4" parent="zqSdYx53ZZpXEfOoCQmj-74" vertex="1">
          <mxGeometry y="30" width="140" height="30" as="geometry" />
        </mxCell>
        <mxCell id="zqSdYx53ZZpXEfOoCQmj-76" value="예매율 순위" style="text;strokeColor=none;fillColor=none;align=left;verticalAlign=middle;spacingLeft=4;spacingRight=4;overflow=hidden;points=[[0,0.5],[1,0.5]];portConstraint=eastwest;rotatable=0;" parent="zqSdYx53ZZpXEfOoCQmj-74" vertex="1">
          <mxGeometry y="60" width="140" height="30" as="geometry" />
        </mxCell>
        <mxCell id="zqSdYx53ZZpXEfOoCQmj-77" value="관객수 순위" style="text;strokeColor=none;fillColor=none;align=left;verticalAlign=middle;spacingLeft=4;spacingRight=4;overflow=hidden;points=[[0,0.5],[1,0.5]];portConstraint=eastwest;rotatable=0;" parent="zqSdYx53ZZpXEfOoCQmj-74" vertex="1">
          <mxGeometry y="90" width="140" height="30" as="geometry" />
        </mxCell>
        <mxCell id="WZ9oy3KOUE4BCKmUHL8Z-2" value="평점 순위" style="text;strokeColor=none;fillColor=none;align=left;verticalAlign=middle;spacingLeft=4;spacingRight=4;overflow=hidden;points=[[0,0.5],[1,0.5]];portConstraint=eastwest;rotatable=0;" vertex="1" parent="zqSdYx53ZZpXEfOoCQmj-74">
          <mxGeometry y="120" width="140" height="30" as="geometry" />
        </mxCell>
        <mxCell id="zqSdYx53ZZpXEfOoCQmj-78" value="평점 순위" style="text;strokeColor=none;fillColor=none;align=left;verticalAlign=middle;spacingLeft=4;spacingRight=4;overflow=hidden;points=[[0,0.5],[1,0.5]];portConstraint=eastwest;rotatable=0;" parent="zqSdYx53ZZpXEfOoCQmj-74" vertex="1">
          <mxGeometry y="150" width="140" height="30" as="geometry" />
        </mxCell>
        <mxCell id="zqSdYx53ZZpXEfOoCQmj-79" value="공지" style="rhombus;whiteSpace=wrap;html=1;" parent="1" vertex="1">
          <mxGeometry x="1930" y="1095" width="80" height="30" as="geometry" />
        </mxCell>
        <mxCell id="zqSdYx53ZZpXEfOoCQmj-80" value="" style="endArrow=classic;html=1;rounded=0;exitX=1;exitY=0.5;exitDx=0;exitDy=0;entryX=0.5;entryY=0;entryDx=0;entryDy=0;" parent="1" source="zqSdYx53ZZpXEfOoCQmj-79" target="zqSdYx53ZZpXEfOoCQmj-74" edge="1">
          <mxGeometry width="50" height="50" relative="1" as="geometry">
            <mxPoint x="2050" y="1242.5" as="sourcePoint" />
            <mxPoint x="2060" y="1142.5" as="targetPoint" />
          </mxGeometry>
        </mxCell>
        <mxCell id="zqSdYx53ZZpXEfOoCQmj-81" value="" style="endArrow=classic;html=1;rounded=0;exitX=0;exitY=0.5;exitDx=0;exitDy=0;" parent="1" source="zqSdYx53ZZpXEfOoCQmj-79" edge="1">
          <mxGeometry width="50" height="50" relative="1" as="geometry">
            <mxPoint x="2050" y="1242.5" as="sourcePoint" />
            <mxPoint x="1910" y="1092.5" as="targetPoint" />
          </mxGeometry>
        </mxCell>
        <mxCell id="zqSdYx53ZZpXEfOoCQmj-82" value="" style="shape=link;html=1;rounded=0;exitX=0.516;exitY=0.96;exitDx=0;exitDy=0;exitPerimeter=0;entryX=0.5;entryY=0;entryDx=0;entryDy=0;" parent="1" source="WYWjUhm8YObNl2KhzV3R-81" target="eux5ETpcmqmiEMaok0SH-60" edge="1">
          <mxGeometry width="100" relative="1" as="geometry">
            <mxPoint x="2560" y="1003" as="sourcePoint" />
            <mxPoint x="2782" y="1003" as="targetPoint" />
          </mxGeometry>
        </mxCell>
        <mxCell id="zqSdYx53ZZpXEfOoCQmj-83" value="" style="shape=link;html=1;rounded=0;entryX=0.5;entryY=0;entryDx=0;entryDy=0;exitX=0.5;exitY=1;exitDx=0;exitDy=0;" parent="1" target="WYWjUhm8YObNl2KhzV3R-72" edge="1" source="zqSdYx53ZZpXEfOoCQmj-17">
          <mxGeometry width="100" relative="1" as="geometry">
            <mxPoint x="2610" y="735" as="sourcePoint" />
            <mxPoint x="2330" y="975" as="targetPoint" />
          </mxGeometry>
        </mxCell>
        <mxCell id="zqSdYx53ZZpXEfOoCQmj-84" value="" style="shape=link;html=1;rounded=0;entryX=0.014;entryY=0.033;entryDx=0;entryDy=0;entryPerimeter=0;exitX=1;exitY=0.5;exitDx=0;exitDy=0;" parent="1" source="eux5ETpcmqmiEMaok0SH-57" target="WYWjUhm8YObNl2KhzV3R-80" edge="1">
          <mxGeometry width="100" relative="1" as="geometry">
            <mxPoint x="2140" y="995" as="sourcePoint" />
            <mxPoint x="2240" y="995" as="targetPoint" />
          </mxGeometry>
        </mxCell>
        <mxCell id="zqSdYx53ZZpXEfOoCQmj-85" value="" style="shape=link;html=1;rounded=0;exitX=0.5;exitY=1;exitDx=0;exitDy=0;entryX=0.5;entryY=0;entryDx=0;entryDy=0;" parent="1" source="eux5ETpcmqmiEMaok0SH-113" edge="1" target="WYWjUhm8YObNl2KhzV3R-49">
          <mxGeometry width="100" relative="1" as="geometry">
            <mxPoint x="1860" y="830" as="sourcePoint" />
            <mxPoint x="1935" y="990" as="targetPoint" />
          </mxGeometry>
        </mxCell>
        <mxCell id="zqSdYx53ZZpXEfOoCQmj-86" value="" style="shape=link;html=1;rounded=0;entryX=0;entryY=0.5;entryDx=0;entryDy=0;exitX=1;exitY=0.5;exitDx=0;exitDy=0;" parent="1" source="eux5ETpcmqmiEMaok0SH-120" target="WYWjUhm8YObNl2KhzV3R-135" edge="1">
          <mxGeometry width="100" relative="1" as="geometry">
            <mxPoint x="1860" y="1422.5" as="sourcePoint" />
            <mxPoint x="1960" y="1422.5" as="targetPoint" />
          </mxGeometry>
        </mxCell>
      </root>
    </mxGraphModel>
  </diagram>
  <diagram id="M18Ij6Xu4xmEr8BTjt6T" name="SKIMA">
    <mxGraphModel dx="1662" dy="754" grid="1" gridSize="10" guides="1" tooltips="1" connect="1" arrows="1" fold="1" page="1" pageScale="1" pageWidth="1169" pageHeight="1654" math="0" shadow="0">
      <root>
        <mxCell id="zU3xAgJa-zYssiEawstD-0" />
        <mxCell id="zU3xAgJa-zYssiEawstD-1" parent="zU3xAgJa-zYssiEawstD-0" />
        <mxCell id="zU3xAgJa-zYssiEawstD-2" value="취소내역" style="swimlane;fontStyle=0;childLayout=stackLayout;horizontal=1;startSize=30;horizontalStack=0;resizeParent=1;resizeParentMax=0;resizeLast=0;collapsible=1;marginBottom=0;" parent="zU3xAgJa-zYssiEawstD-1" vertex="1">
          <mxGeometry x="870" y="330" width="140" height="360" as="geometry" />
        </mxCell>
        <mxCell id="zU3xAgJa-zYssiEawstD-3" value="취소 번호(PK)" style="text;strokeColor=none;fillColor=none;align=left;verticalAlign=middle;spacingLeft=4;spacingRight=4;overflow=hidden;points=[[0,0.5],[1,0.5]];portConstraint=eastwest;rotatable=0;" parent="zU3xAgJa-zYssiEawstD-2" vertex="1">
          <mxGeometry y="30" width="140" height="30" as="geometry" />
        </mxCell>
        <mxCell id="zU3xAgJa-zYssiEawstD-4" value="예매 번호(FK)" style="text;strokeColor=none;fillColor=none;align=left;verticalAlign=middle;spacingLeft=4;spacingRight=4;overflow=hidden;points=[[0,0.5],[1,0.5]];portConstraint=eastwest;rotatable=0;" parent="zU3xAgJa-zYssiEawstD-2" vertex="1">
          <mxGeometry y="60" width="140" height="30" as="geometry" />
        </mxCell>
        <mxCell id="zU3xAgJa-zYssiEawstD-5" value="예매 일시" style="text;strokeColor=none;fillColor=none;align=left;verticalAlign=middle;spacingLeft=4;spacingRight=4;overflow=hidden;points=[[0,0.5],[1,0.5]];portConstraint=eastwest;rotatable=0;" parent="zU3xAgJa-zYssiEawstD-2" vertex="1">
          <mxGeometry y="90" width="140" height="30" as="geometry" />
        </mxCell>
        <mxCell id="zU3xAgJa-zYssiEawstD-6" value="영화명" style="text;strokeColor=none;fillColor=none;align=left;verticalAlign=middle;spacingLeft=4;spacingRight=4;overflow=hidden;points=[[0,0.5],[1,0.5]];portConstraint=eastwest;rotatable=0;" parent="zU3xAgJa-zYssiEawstD-2" vertex="1">
          <mxGeometry y="120" width="140" height="30" as="geometry" />
        </mxCell>
        <mxCell id="zU3xAgJa-zYssiEawstD-7" value="관람 일시" style="text;strokeColor=none;fillColor=none;align=left;verticalAlign=middle;spacingLeft=4;spacingRight=4;overflow=hidden;points=[[0,0.5],[1,0.5]];portConstraint=eastwest;rotatable=0;" parent="zU3xAgJa-zYssiEawstD-2" vertex="1">
          <mxGeometry y="150" width="140" height="30" as="geometry" />
        </mxCell>
        <mxCell id="zU3xAgJa-zYssiEawstD-8" value="매장명" style="text;strokeColor=none;fillColor=none;align=left;verticalAlign=middle;spacingLeft=4;spacingRight=4;overflow=hidden;points=[[0,0.5],[1,0.5]];portConstraint=eastwest;rotatable=0;" parent="zU3xAgJa-zYssiEawstD-2" vertex="1">
          <mxGeometry y="180" width="140" height="30" as="geometry" />
        </mxCell>
        <mxCell id="zU3xAgJa-zYssiEawstD-9" value="상영관" style="text;strokeColor=none;fillColor=none;align=left;verticalAlign=middle;spacingLeft=4;spacingRight=4;overflow=hidden;points=[[0,0.5],[1,0.5]];portConstraint=eastwest;rotatable=0;" parent="zU3xAgJa-zYssiEawstD-2" vertex="1">
          <mxGeometry y="210" width="140" height="30" as="geometry" />
        </mxCell>
        <mxCell id="zU3xAgJa-zYssiEawstD-10" value="좌석" style="text;strokeColor=none;fillColor=none;align=left;verticalAlign=middle;spacingLeft=4;spacingRight=4;overflow=hidden;points=[[0,0.5],[1,0.5]];portConstraint=eastwest;rotatable=0;" parent="zU3xAgJa-zYssiEawstD-2" vertex="1">
          <mxGeometry y="240" width="140" height="30" as="geometry" />
        </mxCell>
        <mxCell id="zU3xAgJa-zYssiEawstD-11" value="인원" style="text;strokeColor=none;fillColor=none;align=left;verticalAlign=middle;spacingLeft=4;spacingRight=4;overflow=hidden;points=[[0,0.5],[1,0.5]];portConstraint=eastwest;rotatable=0;" parent="zU3xAgJa-zYssiEawstD-2" vertex="1">
          <mxGeometry y="270" width="140" height="30" as="geometry" />
        </mxCell>
        <mxCell id="zU3xAgJa-zYssiEawstD-12" value="결제 금액" style="text;strokeColor=none;fillColor=none;align=left;verticalAlign=middle;spacingLeft=4;spacingRight=4;overflow=hidden;points=[[0,0.5],[1,0.5]];portConstraint=eastwest;rotatable=0;" parent="zU3xAgJa-zYssiEawstD-2" vertex="1">
          <mxGeometry y="300" width="140" height="30" as="geometry" />
        </mxCell>
        <mxCell id="zU3xAgJa-zYssiEawstD-13" value="취소 일시" style="text;strokeColor=none;fillColor=none;align=left;verticalAlign=middle;spacingLeft=4;spacingRight=4;overflow=hidden;points=[[0,0.5],[1,0.5]];portConstraint=eastwest;rotatable=0;" parent="zU3xAgJa-zYssiEawstD-2" vertex="1">
          <mxGeometry y="330" width="140" height="30" as="geometry" />
        </mxCell>
        <mxCell id="zU3xAgJa-zYssiEawstD-14" value="영화" style="swimlane;fontStyle=0;childLayout=stackLayout;horizontal=1;startSize=30;horizontalStack=0;resizeParent=1;resizeParentMax=0;resizeLast=0;collapsible=1;marginBottom=0;" parent="zU3xAgJa-zYssiEawstD-1" vertex="1">
          <mxGeometry x="1790" y="1280" width="140" height="300" as="geometry" />
        </mxCell>
        <mxCell id="zU3xAgJa-zYssiEawstD-15" value="영화 ID(PK)" style="text;strokeColor=none;fillColor=none;align=left;verticalAlign=middle;spacingLeft=4;spacingRight=4;overflow=hidden;points=[[0,0.5],[1,0.5]];portConstraint=eastwest;rotatable=0;" parent="zU3xAgJa-zYssiEawstD-14" vertex="1">
          <mxGeometry y="30" width="140" height="30" as="geometry" />
        </mxCell>
        <mxCell id="zU3xAgJa-zYssiEawstD-16" value="영화 이름" style="text;strokeColor=none;fillColor=none;align=left;verticalAlign=middle;spacingLeft=4;spacingRight=4;overflow=hidden;points=[[0,0.5],[1,0.5]];portConstraint=eastwest;rotatable=0;" parent="zU3xAgJa-zYssiEawstD-14" vertex="1">
          <mxGeometry y="60" width="140" height="30" as="geometry" />
        </mxCell>
        <mxCell id="zU3xAgJa-zYssiEawstD-17" value="상영 등급" style="text;strokeColor=none;fillColor=none;align=left;verticalAlign=middle;spacingLeft=4;spacingRight=4;overflow=hidden;points=[[0,0.5],[1,0.5]];portConstraint=eastwest;rotatable=0;" parent="zU3xAgJa-zYssiEawstD-14" vertex="1">
          <mxGeometry y="90" width="140" height="30" as="geometry" />
        </mxCell>
        <mxCell id="zU3xAgJa-zYssiEawstD-18" value="감독" style="text;strokeColor=none;fillColor=none;align=left;verticalAlign=middle;spacingLeft=4;spacingRight=4;overflow=hidden;points=[[0,0.5],[1,0.5]];portConstraint=eastwest;rotatable=0;" parent="zU3xAgJa-zYssiEawstD-14" vertex="1">
          <mxGeometry y="120" width="140" height="30" as="geometry" />
        </mxCell>
        <mxCell id="zU3xAgJa-zYssiEawstD-19" value="출연배우" style="text;strokeColor=none;fillColor=none;align=left;verticalAlign=middle;spacingLeft=4;spacingRight=4;overflow=hidden;points=[[0,0.5],[1,0.5]];portConstraint=eastwest;rotatable=0;" parent="zU3xAgJa-zYssiEawstD-14" vertex="1">
          <mxGeometry y="150" width="140" height="30" as="geometry" />
        </mxCell>
        <mxCell id="zU3xAgJa-zYssiEawstD-20" value="장르" style="text;strokeColor=none;fillColor=none;align=left;verticalAlign=middle;spacingLeft=4;spacingRight=4;overflow=hidden;points=[[0,0.5],[1,0.5]];portConstraint=eastwest;rotatable=0;" parent="zU3xAgJa-zYssiEawstD-14" vertex="1">
          <mxGeometry y="180" width="140" height="30" as="geometry" />
        </mxCell>
        <mxCell id="zU3xAgJa-zYssiEawstD-21" value="개봉일" style="text;strokeColor=none;fillColor=none;align=left;verticalAlign=middle;spacingLeft=4;spacingRight=4;overflow=hidden;points=[[0,0.5],[1,0.5]];portConstraint=eastwest;rotatable=0;" parent="zU3xAgJa-zYssiEawstD-14" vertex="1">
          <mxGeometry y="210" width="140" height="30" as="geometry" />
        </mxCell>
        <mxCell id="zU3xAgJa-zYssiEawstD-22" value="상영시간" style="text;strokeColor=none;fillColor=none;align=left;verticalAlign=middle;spacingLeft=4;spacingRight=4;overflow=hidden;points=[[0,0.5],[1,0.5]];portConstraint=eastwest;rotatable=0;" parent="zU3xAgJa-zYssiEawstD-14" vertex="1">
          <mxGeometry y="240" width="140" height="30" as="geometry" />
        </mxCell>
        <mxCell id="zU3xAgJa-zYssiEawstD-23" value="제작 국가" style="text;strokeColor=none;fillColor=none;align=left;verticalAlign=middle;spacingLeft=4;spacingRight=4;overflow=hidden;points=[[0,0.5],[1,0.5]];portConstraint=eastwest;rotatable=0;" parent="zU3xAgJa-zYssiEawstD-14" vertex="1">
          <mxGeometry y="270" width="140" height="30" as="geometry" />
        </mxCell>
        <mxCell id="zU3xAgJa-zYssiEawstD-26" value="상영시간표" style="swimlane;fontStyle=0;childLayout=stackLayout;horizontal=1;startSize=30;horizontalStack=0;resizeParent=1;resizeParentMax=0;resizeLast=0;collapsible=1;marginBottom=0;" parent="zU3xAgJa-zYssiEawstD-1" vertex="1">
          <mxGeometry x="2110" y="1280" width="140" height="150" as="geometry" />
        </mxCell>
        <mxCell id="zU3xAgJa-zYssiEawstD-27" value="상영관 ID" style="text;strokeColor=none;fillColor=none;align=left;verticalAlign=middle;spacingLeft=4;spacingRight=4;overflow=hidden;points=[[0,0.5],[1,0.5]];portConstraint=eastwest;rotatable=0;" parent="zU3xAgJa-zYssiEawstD-26" vertex="1">
          <mxGeometry y="30" width="140" height="30" as="geometry" />
        </mxCell>
        <mxCell id="zU3xAgJa-zYssiEawstD-28" value="영화 이름" style="text;strokeColor=none;fillColor=none;align=left;verticalAlign=middle;spacingLeft=4;spacingRight=4;overflow=hidden;points=[[0,0.5],[1,0.5]];portConstraint=eastwest;rotatable=0;" parent="zU3xAgJa-zYssiEawstD-26" vertex="1">
          <mxGeometry y="60" width="140" height="30" as="geometry" />
        </mxCell>
        <mxCell id="zU3xAgJa-zYssiEawstD-29" value="상영 날짜" style="text;strokeColor=none;fillColor=none;align=left;verticalAlign=middle;spacingLeft=4;spacingRight=4;overflow=hidden;points=[[0,0.5],[1,0.5]];portConstraint=eastwest;rotatable=0;" parent="zU3xAgJa-zYssiEawstD-26" vertex="1">
          <mxGeometry y="90" width="140" height="30" as="geometry" />
        </mxCell>
        <mxCell id="zU3xAgJa-zYssiEawstD-30" value="상영 시간" style="text;strokeColor=none;fillColor=none;align=left;verticalAlign=middle;spacingLeft=4;spacingRight=4;overflow=hidden;points=[[0,0.5],[1,0.5]];portConstraint=eastwest;rotatable=0;" parent="zU3xAgJa-zYssiEawstD-26" vertex="1">
          <mxGeometry y="120" width="140" height="30" as="geometry" />
        </mxCell>
        <mxCell id="zU3xAgJa-zYssiEawstD-31" value="상영관" style="swimlane;fontStyle=0;childLayout=stackLayout;horizontal=1;startSize=30;horizontalStack=0;resizeParent=1;resizeParentMax=0;resizeLast=0;collapsible=1;marginBottom=0;" parent="zU3xAgJa-zYssiEawstD-1" vertex="1">
          <mxGeometry x="1950" y="1280" width="140" height="180" as="geometry" />
        </mxCell>
        <mxCell id="zU3xAgJa-zYssiEawstD-32" value="상영관 ID(PK)" style="text;strokeColor=none;fillColor=none;align=left;verticalAlign=middle;spacingLeft=4;spacingRight=4;overflow=hidden;points=[[0,0.5],[1,0.5]];portConstraint=eastwest;rotatable=0;" parent="zU3xAgJa-zYssiEawstD-31" vertex="1">
          <mxGeometry y="30" width="140" height="30" as="geometry" />
        </mxCell>
        <mxCell id="zU3xAgJa-zYssiEawstD-33" value="매장 ID(FK)" style="text;strokeColor=none;fillColor=none;align=left;verticalAlign=middle;spacingLeft=4;spacingRight=4;overflow=hidden;points=[[0,0.5],[1,0.5]];portConstraint=eastwest;rotatable=0;" parent="zU3xAgJa-zYssiEawstD-31" vertex="1">
          <mxGeometry y="60" width="140" height="30" as="geometry" />
        </mxCell>
        <mxCell id="zU3xAgJa-zYssiEawstD-34" value="상영관 이름" style="text;strokeColor=none;fillColor=none;align=left;verticalAlign=middle;spacingLeft=4;spacingRight=4;overflow=hidden;points=[[0,0.5],[1,0.5]];portConstraint=eastwest;rotatable=0;" parent="zU3xAgJa-zYssiEawstD-31" vertex="1">
          <mxGeometry y="90" width="140" height="30" as="geometry" />
        </mxCell>
        <mxCell id="zU3xAgJa-zYssiEawstD-35" value="좌석 현황" style="text;strokeColor=none;fillColor=none;align=left;verticalAlign=middle;spacingLeft=4;spacingRight=4;overflow=hidden;points=[[0,0.5],[1,0.5]];portConstraint=eastwest;rotatable=0;" parent="zU3xAgJa-zYssiEawstD-31" vertex="1">
          <mxGeometry y="120" width="140" height="30" as="geometry" />
        </mxCell>
        <mxCell id="zU3xAgJa-zYssiEawstD-36" value="상영관 종류" style="text;strokeColor=none;fillColor=none;align=left;verticalAlign=middle;spacingLeft=4;spacingRight=4;overflow=hidden;points=[[0,0.5],[1,0.5]];portConstraint=eastwest;rotatable=0;" parent="zU3xAgJa-zYssiEawstD-31" vertex="1">
          <mxGeometry y="150" width="140" height="30" as="geometry" />
        </mxCell>
        <mxCell id="zU3xAgJa-zYssiEawstD-37" value="매장" style="swimlane;fontStyle=0;childLayout=stackLayout;horizontal=1;startSize=40;horizontalStack=0;resizeParent=1;resizeParentMax=0;resizeLast=0;collapsible=1;marginBottom=0;" parent="zU3xAgJa-zYssiEawstD-1" vertex="1">
          <mxGeometry x="1890" y="800" width="140" height="220" as="geometry" />
        </mxCell>
        <mxCell id="zU3xAgJa-zYssiEawstD-38" value="매장 ID(PK)" style="text;strokeColor=none;fillColor=none;align=left;verticalAlign=middle;spacingLeft=4;spacingRight=4;overflow=hidden;points=[[0,0.5],[1,0.5]];portConstraint=eastwest;rotatable=0;" parent="zU3xAgJa-zYssiEawstD-37" vertex="1">
          <mxGeometry y="40" width="140" height="30" as="geometry" />
        </mxCell>
        <mxCell id="zU3xAgJa-zYssiEawstD-39" value="매장명" style="text;strokeColor=none;fillColor=none;align=left;verticalAlign=middle;spacingLeft=4;spacingRight=4;overflow=hidden;points=[[0,0.5],[1,0.5]];portConstraint=eastwest;rotatable=0;" parent="zU3xAgJa-zYssiEawstD-37" vertex="1">
          <mxGeometry y="70" width="140" height="30" as="geometry" />
        </mxCell>
        <mxCell id="zU3xAgJa-zYssiEawstD-40" value="위치" style="text;strokeColor=none;fillColor=none;align=left;verticalAlign=middle;spacingLeft=4;spacingRight=4;overflow=hidden;points=[[0,0.5],[1,0.5]];portConstraint=eastwest;rotatable=0;" parent="zU3xAgJa-zYssiEawstD-37" vertex="1">
          <mxGeometry y="100" width="140" height="30" as="geometry" />
        </mxCell>
        <mxCell id="zU3xAgJa-zYssiEawstD-41" value="전화번호" style="text;strokeColor=none;fillColor=none;align=left;verticalAlign=middle;spacingLeft=4;spacingRight=4;overflow=hidden;points=[[0,0.5],[1,0.5]];portConstraint=eastwest;rotatable=0;" parent="zU3xAgJa-zYssiEawstD-37" vertex="1">
          <mxGeometry y="130" width="140" height="30" as="geometry" />
        </mxCell>
        <mxCell id="zU3xAgJa-zYssiEawstD-42" value="특별관 유무" style="text;strokeColor=none;fillColor=none;align=left;verticalAlign=middle;spacingLeft=4;spacingRight=4;overflow=hidden;points=[[0,0.5],[1,0.5]];portConstraint=eastwest;rotatable=0;" parent="zU3xAgJa-zYssiEawstD-37" vertex="1">
          <mxGeometry y="160" width="140" height="30" as="geometry" />
        </mxCell>
        <mxCell id="zU3xAgJa-zYssiEawstD-43" value="매출" style="text;strokeColor=none;fillColor=none;align=left;verticalAlign=middle;spacingLeft=4;spacingRight=4;overflow=hidden;points=[[0,0.5],[1,0.5]];portConstraint=eastwest;rotatable=0;" parent="zU3xAgJa-zYssiEawstD-37" vertex="1">
          <mxGeometry y="190" width="140" height="30" as="geometry" />
        </mxCell>
        <mxCell id="zU3xAgJa-zYssiEawstD-44" value="직원" style="swimlane;fontStyle=0;childLayout=stackLayout;horizontal=1;startSize=30;horizontalStack=0;resizeParent=1;resizeParentMax=0;resizeLast=0;collapsible=1;marginBottom=0;" parent="zU3xAgJa-zYssiEawstD-1" vertex="1">
          <mxGeometry x="2560" y="690" width="140" height="360" as="geometry" />
        </mxCell>
        <mxCell id="zU3xAgJa-zYssiEawstD-45" value="직원 ID(PK)" style="text;strokeColor=none;fillColor=none;align=left;verticalAlign=middle;spacingLeft=4;spacingRight=4;overflow=hidden;points=[[0,0.5],[1,0.5]];portConstraint=eastwest;rotatable=0;" parent="zU3xAgJa-zYssiEawstD-44" vertex="1">
          <mxGeometry y="30" width="140" height="30" as="geometry" />
        </mxCell>
        <mxCell id="zU3xAgJa-zYssiEawstD-46" value="매장 ID(FK)" style="text;strokeColor=none;fillColor=none;align=left;verticalAlign=middle;spacingLeft=4;spacingRight=4;overflow=hidden;points=[[0,0.5],[1,0.5]];portConstraint=eastwest;rotatable=0;" parent="zU3xAgJa-zYssiEawstD-44" vertex="1">
          <mxGeometry y="60" width="140" height="30" as="geometry" />
        </mxCell>
        <mxCell id="zU3xAgJa-zYssiEawstD-47" value="PW" style="text;strokeColor=none;fillColor=none;align=left;verticalAlign=middle;spacingLeft=4;spacingRight=4;overflow=hidden;points=[[0,0.5],[1,0.5]];portConstraint=eastwest;rotatable=0;" parent="zU3xAgJa-zYssiEawstD-44" vertex="1">
          <mxGeometry y="90" width="140" height="30" as="geometry" />
        </mxCell>
        <mxCell id="zU3xAgJa-zYssiEawstD-48" value="이름" style="text;strokeColor=none;fillColor=none;align=left;verticalAlign=middle;spacingLeft=4;spacingRight=4;overflow=hidden;points=[[0,0.5],[1,0.5]];portConstraint=eastwest;rotatable=0;" parent="zU3xAgJa-zYssiEawstD-44" vertex="1">
          <mxGeometry y="120" width="140" height="30" as="geometry" />
        </mxCell>
        <mxCell id="zU3xAgJa-zYssiEawstD-49" value="생년월일" style="text;strokeColor=none;fillColor=none;align=left;verticalAlign=middle;spacingLeft=4;spacingRight=4;overflow=hidden;points=[[0,0.5],[1,0.5]];portConstraint=eastwest;rotatable=0;" parent="zU3xAgJa-zYssiEawstD-44" vertex="1">
          <mxGeometry y="150" width="140" height="30" as="geometry" />
        </mxCell>
        <mxCell id="zU3xAgJa-zYssiEawstD-50" value="성별" style="text;strokeColor=none;fillColor=none;align=left;verticalAlign=middle;spacingLeft=4;spacingRight=4;overflow=hidden;points=[[0,0.5],[1,0.5]];portConstraint=eastwest;rotatable=0;" parent="zU3xAgJa-zYssiEawstD-44" vertex="1">
          <mxGeometry y="180" width="140" height="30" as="geometry" />
        </mxCell>
        <mxCell id="zU3xAgJa-zYssiEawstD-51" value="전화번호" style="text;strokeColor=none;fillColor=none;align=left;verticalAlign=middle;spacingLeft=4;spacingRight=4;overflow=hidden;points=[[0,0.5],[1,0.5]];portConstraint=eastwest;rotatable=0;" parent="zU3xAgJa-zYssiEawstD-44" vertex="1">
          <mxGeometry y="210" width="140" height="30" as="geometry" />
        </mxCell>
        <mxCell id="zU3xAgJa-zYssiEawstD-52" value="직책" style="text;strokeColor=none;fillColor=none;align=left;verticalAlign=middle;spacingLeft=4;spacingRight=4;overflow=hidden;points=[[0,0.5],[1,0.5]];portConstraint=eastwest;rotatable=0;" parent="zU3xAgJa-zYssiEawstD-44" vertex="1">
          <mxGeometry y="240" width="140" height="30" as="geometry" />
        </mxCell>
        <mxCell id="zU3xAgJa-zYssiEawstD-53" value="부서명" style="text;strokeColor=none;fillColor=none;align=left;verticalAlign=middle;spacingLeft=4;spacingRight=4;overflow=hidden;points=[[0,0.5],[1,0.5]];portConstraint=eastwest;rotatable=0;" parent="zU3xAgJa-zYssiEawstD-44" vertex="1">
          <mxGeometry y="270" width="140" height="30" as="geometry" />
        </mxCell>
        <mxCell id="zU3xAgJa-zYssiEawstD-54" value="급여" style="text;strokeColor=none;fillColor=none;align=left;verticalAlign=middle;spacingLeft=4;spacingRight=4;overflow=hidden;points=[[0,0.5],[1,0.5]];portConstraint=eastwest;rotatable=0;" parent="zU3xAgJa-zYssiEawstD-44" vertex="1">
          <mxGeometry y="300" width="140" height="30" as="geometry" />
        </mxCell>
        <mxCell id="zU3xAgJa-zYssiEawstD-55" value="근무시간" style="text;strokeColor=none;fillColor=none;align=left;verticalAlign=middle;spacingLeft=4;spacingRight=4;overflow=hidden;points=[[0,0.5],[1,0.5]];portConstraint=eastwest;rotatable=0;" parent="zU3xAgJa-zYssiEawstD-44" vertex="1">
          <mxGeometry y="330" width="140" height="30" as="geometry" />
        </mxCell>
        <mxCell id="zU3xAgJa-zYssiEawstD-56" value="부서" style="swimlane;fontStyle=0;childLayout=stackLayout;horizontal=1;startSize=30;horizontalStack=0;resizeParent=1;resizeParentMax=0;resizeLast=0;collapsible=1;marginBottom=0;" parent="zU3xAgJa-zYssiEawstD-1" vertex="1">
          <mxGeometry x="2720" y="860" width="140" height="90" as="geometry" />
        </mxCell>
        <mxCell id="zU3xAgJa-zYssiEawstD-57" value="부서명" style="text;strokeColor=none;fillColor=none;align=left;verticalAlign=middle;spacingLeft=4;spacingRight=4;overflow=hidden;points=[[0,0.5],[1,0.5]];portConstraint=eastwest;rotatable=0;" parent="zU3xAgJa-zYssiEawstD-56" vertex="1">
          <mxGeometry y="30" width="140" height="30" as="geometry" />
        </mxCell>
        <mxCell id="zU3xAgJa-zYssiEawstD-58" value="업무" style="text;strokeColor=none;fillColor=none;align=left;verticalAlign=middle;spacingLeft=4;spacingRight=4;overflow=hidden;points=[[0,0.5],[1,0.5]];portConstraint=eastwest;rotatable=0;" parent="zU3xAgJa-zYssiEawstD-56" vertex="1">
          <mxGeometry y="60" width="140" height="30" as="geometry" />
        </mxCell>
        <mxCell id="zU3xAgJa-zYssiEawstD-59" value="직원관리 시스템" style="swimlane;fontStyle=0;childLayout=stackLayout;horizontal=1;startSize=30;horizontalStack=0;resizeParent=1;resizeParentMax=0;resizeLast=0;collapsible=1;marginBottom=0;" parent="zU3xAgJa-zYssiEawstD-1" vertex="1">
          <mxGeometry x="2720" y="690" width="140" height="150" as="geometry" />
        </mxCell>
        <mxCell id="zU3xAgJa-zYssiEawstD-60" value="직원 ID" style="text;strokeColor=none;fillColor=none;align=left;verticalAlign=middle;spacingLeft=4;spacingRight=4;overflow=hidden;points=[[0,0.5],[1,0.5]];portConstraint=eastwest;rotatable=0;" parent="zU3xAgJa-zYssiEawstD-59" vertex="1">
          <mxGeometry y="30" width="140" height="30" as="geometry" />
        </mxCell>
        <mxCell id="zU3xAgJa-zYssiEawstD-61" value="출근 시간" style="text;strokeColor=none;fillColor=none;align=left;verticalAlign=middle;spacingLeft=4;spacingRight=4;overflow=hidden;points=[[0,0.5],[1,0.5]];portConstraint=eastwest;rotatable=0;" parent="zU3xAgJa-zYssiEawstD-59" vertex="1">
          <mxGeometry y="60" width="140" height="30" as="geometry" />
        </mxCell>
        <mxCell id="zU3xAgJa-zYssiEawstD-62" value="퇴근 시간" style="text;strokeColor=none;fillColor=none;align=left;verticalAlign=middle;spacingLeft=4;spacingRight=4;overflow=hidden;points=[[0,0.5],[1,0.5]];portConstraint=eastwest;rotatable=0;" parent="zU3xAgJa-zYssiEawstD-59" vertex="1">
          <mxGeometry y="90" width="140" height="30" as="geometry" />
        </mxCell>
        <mxCell id="zU3xAgJa-zYssiEawstD-63" value="날짜" style="text;strokeColor=none;fillColor=none;align=left;verticalAlign=middle;spacingLeft=4;spacingRight=4;overflow=hidden;points=[[0,0.5],[1,0.5]];portConstraint=eastwest;rotatable=0;" parent="zU3xAgJa-zYssiEawstD-59" vertex="1">
          <mxGeometry y="120" width="140" height="30" as="geometry" />
        </mxCell>
        <mxCell id="zU3xAgJa-zYssiEawstD-71" value="좌석" style="swimlane;fontStyle=0;childLayout=stackLayout;horizontal=1;startSize=30;horizontalStack=0;resizeParent=1;resizeParentMax=0;resizeLast=0;collapsible=1;marginBottom=0;" parent="zU3xAgJa-zYssiEawstD-1" vertex="1">
          <mxGeometry x="1950" y="1480" width="140" height="150" as="geometry" />
        </mxCell>
        <mxCell id="zU3xAgJa-zYssiEawstD-72" value="좌석 번호(PK)" style="text;strokeColor=none;fillColor=none;align=left;verticalAlign=middle;spacingLeft=4;spacingRight=4;overflow=hidden;points=[[0,0.5],[1,0.5]];portConstraint=eastwest;rotatable=0;" parent="zU3xAgJa-zYssiEawstD-71" vertex="1">
          <mxGeometry y="30" width="140" height="30" as="geometry" />
        </mxCell>
        <mxCell id="zU3xAgJa-zYssiEawstD-75" value="좌석 종류" style="text;strokeColor=none;fillColor=none;align=left;verticalAlign=middle;spacingLeft=4;spacingRight=4;overflow=hidden;points=[[0,0.5],[1,0.5]];portConstraint=eastwest;rotatable=0;" parent="zU3xAgJa-zYssiEawstD-71" vertex="1">
          <mxGeometry y="60" width="140" height="30" as="geometry" />
        </mxCell>
        <mxCell id="zU3xAgJa-zYssiEawstD-73" value="상영관 ID(FK)" style="text;strokeColor=none;fillColor=none;align=left;verticalAlign=middle;spacingLeft=4;spacingRight=4;overflow=hidden;points=[[0,0.5],[1,0.5]];portConstraint=eastwest;rotatable=0;" parent="zU3xAgJa-zYssiEawstD-71" vertex="1">
          <mxGeometry y="90" width="140" height="30" as="geometry" />
        </mxCell>
        <mxCell id="zU3xAgJa-zYssiEawstD-74" value="예매 여부" style="text;strokeColor=none;fillColor=none;align=left;verticalAlign=middle;spacingLeft=4;spacingRight=4;overflow=hidden;points=[[0,0.5],[1,0.5]];portConstraint=eastwest;rotatable=0;" parent="zU3xAgJa-zYssiEawstD-71" vertex="1">
          <mxGeometry y="120" width="140" height="30" as="geometry" />
        </mxCell>
        <mxCell id="zU3xAgJa-zYssiEawstD-76" value="고객" style="swimlane;fontStyle=0;childLayout=stackLayout;horizontal=1;startSize=30;horizontalStack=0;resizeParent=1;resizeParentMax=0;resizeLast=0;collapsible=1;marginBottom=0;" parent="zU3xAgJa-zYssiEawstD-1" vertex="1">
          <mxGeometry x="1300" y="690" width="140" height="360" as="geometry" />
        </mxCell>
        <mxCell id="zU3xAgJa-zYssiEawstD-77" value="고객 ID (PK)" style="text;strokeColor=none;fillColor=none;align=left;verticalAlign=middle;spacingLeft=4;spacingRight=4;overflow=hidden;points=[[0,0.5],[1,0.5]];portConstraint=eastwest;rotatable=0;" parent="zU3xAgJa-zYssiEawstD-76" vertex="1">
          <mxGeometry y="30" width="140" height="30" as="geometry" />
        </mxCell>
        <mxCell id="zU3xAgJa-zYssiEawstD-78" value="PW" style="text;strokeColor=none;fillColor=none;align=left;verticalAlign=middle;spacingLeft=4;spacingRight=4;overflow=hidden;points=[[0,0.5],[1,0.5]];portConstraint=eastwest;rotatable=0;" parent="zU3xAgJa-zYssiEawstD-76" vertex="1">
          <mxGeometry y="60" width="140" height="30" as="geometry" />
        </mxCell>
        <mxCell id="zU3xAgJa-zYssiEawstD-79" value="이름    " style="text;strokeColor=none;fillColor=none;align=left;verticalAlign=middle;spacingLeft=4;spacingRight=4;overflow=hidden;points=[[0,0.5],[1,0.5]];portConstraint=eastwest;rotatable=0;" parent="zU3xAgJa-zYssiEawstD-76" vertex="1">
          <mxGeometry y="90" width="140" height="30" as="geometry" />
        </mxCell>
        <mxCell id="zU3xAgJa-zYssiEawstD-80" value="생년월일" style="text;strokeColor=none;fillColor=none;align=left;verticalAlign=middle;spacingLeft=4;spacingRight=4;overflow=hidden;points=[[0,0.5],[1,0.5]];portConstraint=eastwest;rotatable=0;" parent="zU3xAgJa-zYssiEawstD-76" vertex="1">
          <mxGeometry y="120" width="140" height="30" as="geometry" />
        </mxCell>
        <mxCell id="zU3xAgJa-zYssiEawstD-81" value="성별" style="text;strokeColor=none;fillColor=none;align=left;verticalAlign=middle;spacingLeft=4;spacingRight=4;overflow=hidden;points=[[0,0.5],[1,0.5]];portConstraint=eastwest;rotatable=0;" parent="zU3xAgJa-zYssiEawstD-76" vertex="1">
          <mxGeometry y="150" width="140" height="30" as="geometry" />
        </mxCell>
        <mxCell id="zU3xAgJa-zYssiEawstD-82" value="전화번호" style="text;strokeColor=none;fillColor=none;align=left;verticalAlign=middle;spacingLeft=4;spacingRight=4;overflow=hidden;points=[[0,0.5],[1,0.5]];portConstraint=eastwest;rotatable=0;" parent="zU3xAgJa-zYssiEawstD-76" vertex="1">
          <mxGeometry y="180" width="140" height="30" as="geometry" />
        </mxCell>
        <mxCell id="zU3xAgJa-zYssiEawstD-83" value="등급" style="text;strokeColor=none;fillColor=none;align=left;verticalAlign=middle;spacingLeft=4;spacingRight=4;overflow=hidden;points=[[0,0.5],[1,0.5]];portConstraint=eastwest;rotatable=0;" parent="zU3xAgJa-zYssiEawstD-76" vertex="1">
          <mxGeometry y="210" width="140" height="30" as="geometry" />
        </mxCell>
        <mxCell id="zU3xAgJa-zYssiEawstD-84" value="닉네임" style="text;strokeColor=none;fillColor=none;align=left;verticalAlign=middle;spacingLeft=4;spacingRight=4;overflow=hidden;points=[[0,0.5],[1,0.5]];portConstraint=eastwest;rotatable=0;" parent="zU3xAgJa-zYssiEawstD-76" vertex="1">
          <mxGeometry y="240" width="140" height="30" as="geometry" />
        </mxCell>
        <mxCell id="zU3xAgJa-zYssiEawstD-85" value="포인트" style="text;strokeColor=none;fillColor=none;align=left;verticalAlign=middle;spacingLeft=4;spacingRight=4;overflow=hidden;points=[[0,0.5],[1,0.5]];portConstraint=eastwest;rotatable=0;" parent="zU3xAgJa-zYssiEawstD-76" vertex="1">
          <mxGeometry y="270" width="140" height="30" as="geometry" />
        </mxCell>
        <mxCell id="zU3xAgJa-zYssiEawstD-86" value="이메일" style="text;strokeColor=none;fillColor=none;align=left;verticalAlign=middle;spacingLeft=4;spacingRight=4;overflow=hidden;points=[[0,0.5],[1,0.5]];portConstraint=eastwest;rotatable=0;" parent="zU3xAgJa-zYssiEawstD-76" vertex="1">
          <mxGeometry y="300" width="140" height="30" as="geometry" />
        </mxCell>
        <mxCell id="zU3xAgJa-zYssiEawstD-87" value="선호장르" style="text;strokeColor=none;fillColor=none;align=left;verticalAlign=middle;spacingLeft=4;spacingRight=4;overflow=hidden;points=[[0,0.5],[1,0.5]];portConstraint=eastwest;rotatable=0;" parent="zU3xAgJa-zYssiEawstD-76" vertex="1">
          <mxGeometry y="330" width="140" height="30" as="geometry" />
        </mxCell>
        <mxCell id="zU3xAgJa-zYssiEawstD-88" value="푸드코트" style="swimlane;fontStyle=0;childLayout=stackLayout;horizontal=1;startSize=30;horizontalStack=0;resizeParent=1;resizeParentMax=0;resizeLast=0;collapsible=1;marginBottom=0;" parent="zU3xAgJa-zYssiEawstD-1" vertex="1">
          <mxGeometry x="2050" y="840" width="140" height="120" as="geometry" />
        </mxCell>
        <mxCell id="zU3xAgJa-zYssiEawstD-89" value="푸드코트 ID(PK)" style="text;strokeColor=none;fillColor=none;align=left;verticalAlign=middle;spacingLeft=4;spacingRight=4;overflow=hidden;points=[[0,0.5],[1,0.5]];portConstraint=eastwest;rotatable=0;" parent="zU3xAgJa-zYssiEawstD-88" vertex="1">
          <mxGeometry y="30" width="140" height="30" as="geometry" />
        </mxCell>
        <mxCell id="zU3xAgJa-zYssiEawstD-90" value="매장 ID(FK)" style="text;strokeColor=none;fillColor=none;align=left;verticalAlign=middle;spacingLeft=4;spacingRight=4;overflow=hidden;points=[[0,0.5],[1,0.5]];portConstraint=eastwest;rotatable=0;" parent="zU3xAgJa-zYssiEawstD-88" vertex="1">
          <mxGeometry y="60" width="140" height="30" as="geometry" />
        </mxCell>
        <mxCell id="zU3xAgJa-zYssiEawstD-91" value="푸드코트명" style="text;strokeColor=none;fillColor=none;align=left;verticalAlign=middle;spacingLeft=4;spacingRight=4;overflow=hidden;points=[[0,0.5],[1,0.5]];portConstraint=eastwest;rotatable=0;" parent="zU3xAgJa-zYssiEawstD-88" vertex="1">
          <mxGeometry y="90" width="140" height="30" as="geometry" />
        </mxCell>
        <mxCell id="zU3xAgJa-zYssiEawstD-98" value="물품목록" style="swimlane;fontStyle=0;childLayout=stackLayout;horizontal=1;startSize=30;horizontalStack=0;resizeParent=1;resizeParentMax=0;resizeLast=0;collapsible=1;marginBottom=0;" parent="zU3xAgJa-zYssiEawstD-1" vertex="1">
          <mxGeometry x="2050" y="630" width="140" height="180" as="geometry" />
        </mxCell>
        <mxCell id="zU3xAgJa-zYssiEawstD-99" value="물품 ID(PK)" style="text;strokeColor=none;fillColor=none;align=left;verticalAlign=middle;spacingLeft=4;spacingRight=4;overflow=hidden;points=[[0,0.5],[1,0.5]];portConstraint=eastwest;rotatable=0;" parent="zU3xAgJa-zYssiEawstD-98" vertex="1">
          <mxGeometry y="30" width="140" height="30" as="geometry" />
        </mxCell>
        <mxCell id="zU3xAgJa-zYssiEawstD-100" value="푸드코트 ID(FK)" style="text;strokeColor=none;fillColor=none;align=left;verticalAlign=middle;spacingLeft=4;spacingRight=4;overflow=hidden;points=[[0,0.5],[1,0.5]];portConstraint=eastwest;rotatable=0;" parent="zU3xAgJa-zYssiEawstD-98" vertex="1">
          <mxGeometry y="60" width="140" height="30" as="geometry" />
        </mxCell>
        <mxCell id="zU3xAgJa-zYssiEawstD-101" value="물품명" style="text;strokeColor=none;fillColor=none;align=left;verticalAlign=middle;spacingLeft=4;spacingRight=4;overflow=hidden;points=[[0,0.5],[1,0.5]];portConstraint=eastwest;rotatable=0;" parent="zU3xAgJa-zYssiEawstD-98" vertex="1">
          <mxGeometry y="90" width="140" height="30" as="geometry" />
        </mxCell>
        <mxCell id="zU3xAgJa-zYssiEawstD-102" value="재고" style="text;strokeColor=none;fillColor=none;align=left;verticalAlign=middle;spacingLeft=4;spacingRight=4;overflow=hidden;points=[[0,0.5],[1,0.5]];portConstraint=eastwest;rotatable=0;" parent="zU3xAgJa-zYssiEawstD-98" vertex="1">
          <mxGeometry y="120" width="140" height="30" as="geometry" />
        </mxCell>
        <mxCell id="zU3xAgJa-zYssiEawstD-103" value="가격" style="text;strokeColor=none;fillColor=none;align=left;verticalAlign=middle;spacingLeft=4;spacingRight=4;overflow=hidden;points=[[0,0.5],[1,0.5]];portConstraint=eastwest;rotatable=0;" parent="zU3xAgJa-zYssiEawstD-98" vertex="1">
          <mxGeometry y="150" width="140" height="30" as="geometry" />
        </mxCell>
        <mxCell id="zU3xAgJa-zYssiEawstD-104" value="주차장" style="swimlane;fontStyle=0;childLayout=stackLayout;horizontal=1;startSize=30;horizontalStack=0;resizeParent=1;resizeParentMax=0;resizeLast=0;collapsible=1;marginBottom=0;" parent="zU3xAgJa-zYssiEawstD-1" vertex="1">
          <mxGeometry x="1890" y="630" width="140" height="150" as="geometry" />
        </mxCell>
        <mxCell id="zU3xAgJa-zYssiEawstD-105" value="주차장 ID(PK)" style="text;strokeColor=none;fillColor=none;align=left;verticalAlign=middle;spacingLeft=4;spacingRight=4;overflow=hidden;points=[[0,0.5],[1,0.5]];portConstraint=eastwest;rotatable=0;" parent="zU3xAgJa-zYssiEawstD-104" vertex="1">
          <mxGeometry y="30" width="140" height="30" as="geometry" />
        </mxCell>
        <mxCell id="zU3xAgJa-zYssiEawstD-106" value="매장 ID(FK)" style="text;strokeColor=none;fillColor=none;align=left;verticalAlign=middle;spacingLeft=4;spacingRight=4;overflow=hidden;points=[[0,0.5],[1,0.5]];portConstraint=eastwest;rotatable=0;" parent="zU3xAgJa-zYssiEawstD-104" vertex="1">
          <mxGeometry y="60" width="140" height="30" as="geometry" />
        </mxCell>
        <mxCell id="zU3xAgJa-zYssiEawstD-107" value="층 수" style="text;strokeColor=none;fillColor=none;align=left;verticalAlign=middle;spacingLeft=4;spacingRight=4;overflow=hidden;points=[[0,0.5],[1,0.5]];portConstraint=eastwest;rotatable=0;" parent="zU3xAgJa-zYssiEawstD-104" vertex="1">
          <mxGeometry y="90" width="140" height="30" as="geometry" />
        </mxCell>
        <mxCell id="zU3xAgJa-zYssiEawstD-108" value="주차 요금 규정" style="text;strokeColor=none;fillColor=none;align=left;verticalAlign=middle;spacingLeft=4;spacingRight=4;overflow=hidden;points=[[0,0.5],[1,0.5]];portConstraint=eastwest;rotatable=0;" parent="zU3xAgJa-zYssiEawstD-104" vertex="1">
          <mxGeometry y="120" width="140" height="30" as="geometry" />
        </mxCell>
        <mxCell id="zU3xAgJa-zYssiEawstD-111" value="예매내역" style="swimlane;fontStyle=0;childLayout=stackLayout;horizontal=1;startSize=30;horizontalStack=0;resizeParent=1;resizeParentMax=0;resizeLast=0;collapsible=1;marginBottom=0;" parent="zU3xAgJa-zYssiEawstD-1" vertex="1">
          <mxGeometry x="1029" y="330" width="140" height="330" as="geometry" />
        </mxCell>
        <mxCell id="zU3xAgJa-zYssiEawstD-112" value="예매 번호(PK)" style="text;strokeColor=none;fillColor=none;align=left;verticalAlign=middle;spacingLeft=4;spacingRight=4;overflow=hidden;points=[[0,0.5],[1,0.5]];portConstraint=eastwest;rotatable=0;" parent="zU3xAgJa-zYssiEawstD-111" vertex="1">
          <mxGeometry y="30" width="140" height="30" as="geometry" />
        </mxCell>
        <mxCell id="zU3xAgJa-zYssiEawstD-113" value="고객 ID(FK)" style="text;strokeColor=none;fillColor=none;align=left;verticalAlign=middle;spacingLeft=4;spacingRight=4;overflow=hidden;points=[[0,0.5],[1,0.5]];portConstraint=eastwest;rotatable=0;" parent="zU3xAgJa-zYssiEawstD-111" vertex="1">
          <mxGeometry y="60" width="140" height="30" as="geometry" />
        </mxCell>
        <mxCell id="zU3xAgJa-zYssiEawstD-114" value="예매 일시" style="text;strokeColor=none;fillColor=none;align=left;verticalAlign=middle;spacingLeft=4;spacingRight=4;overflow=hidden;points=[[0,0.5],[1,0.5]];portConstraint=eastwest;rotatable=0;" parent="zU3xAgJa-zYssiEawstD-111" vertex="1">
          <mxGeometry y="90" width="140" height="30" as="geometry" />
        </mxCell>
        <mxCell id="zU3xAgJa-zYssiEawstD-115" value="영화명" style="text;strokeColor=none;fillColor=none;align=left;verticalAlign=middle;spacingLeft=4;spacingRight=4;overflow=hidden;points=[[0,0.5],[1,0.5]];portConstraint=eastwest;rotatable=0;" parent="zU3xAgJa-zYssiEawstD-111" vertex="1">
          <mxGeometry y="120" width="140" height="30" as="geometry" />
        </mxCell>
        <mxCell id="zU3xAgJa-zYssiEawstD-116" value="관람 일시" style="text;strokeColor=none;fillColor=none;align=left;verticalAlign=middle;spacingLeft=4;spacingRight=4;overflow=hidden;points=[[0,0.5],[1,0.5]];portConstraint=eastwest;rotatable=0;" parent="zU3xAgJa-zYssiEawstD-111" vertex="1">
          <mxGeometry y="150" width="140" height="30" as="geometry" />
        </mxCell>
        <mxCell id="zU3xAgJa-zYssiEawstD-117" value="매장명" style="text;strokeColor=none;fillColor=none;align=left;verticalAlign=middle;spacingLeft=4;spacingRight=4;overflow=hidden;points=[[0,0.5],[1,0.5]];portConstraint=eastwest;rotatable=0;" parent="zU3xAgJa-zYssiEawstD-111" vertex="1">
          <mxGeometry y="180" width="140" height="30" as="geometry" />
        </mxCell>
        <mxCell id="zU3xAgJa-zYssiEawstD-118" value="상영관" style="text;strokeColor=none;fillColor=none;align=left;verticalAlign=middle;spacingLeft=4;spacingRight=4;overflow=hidden;points=[[0,0.5],[1,0.5]];portConstraint=eastwest;rotatable=0;" parent="zU3xAgJa-zYssiEawstD-111" vertex="1">
          <mxGeometry y="210" width="140" height="30" as="geometry" />
        </mxCell>
        <mxCell id="zU3xAgJa-zYssiEawstD-119" value="좌석" style="text;strokeColor=none;fillColor=none;align=left;verticalAlign=middle;spacingLeft=4;spacingRight=4;overflow=hidden;points=[[0,0.5],[1,0.5]];portConstraint=eastwest;rotatable=0;" parent="zU3xAgJa-zYssiEawstD-111" vertex="1">
          <mxGeometry y="240" width="140" height="30" as="geometry" />
        </mxCell>
        <mxCell id="zU3xAgJa-zYssiEawstD-120" value="인원" style="text;strokeColor=none;fillColor=none;align=left;verticalAlign=middle;spacingLeft=4;spacingRight=4;overflow=hidden;points=[[0,0.5],[1,0.5]];portConstraint=eastwest;rotatable=0;" parent="zU3xAgJa-zYssiEawstD-111" vertex="1">
          <mxGeometry y="270" width="140" height="30" as="geometry" />
        </mxCell>
        <mxCell id="zU3xAgJa-zYssiEawstD-121" value="결제 금액" style="text;strokeColor=none;fillColor=none;align=left;verticalAlign=middle;spacingLeft=4;spacingRight=4;overflow=hidden;points=[[0,0.5],[1,0.5]];portConstraint=eastwest;rotatable=0;" parent="zU3xAgJa-zYssiEawstD-111" vertex="1">
          <mxGeometry y="300" width="140" height="30" as="geometry" />
        </mxCell>
        <mxCell id="zU3xAgJa-zYssiEawstD-131" value="카드" style="swimlane;fontStyle=0;childLayout=stackLayout;horizontal=1;startSize=30;horizontalStack=0;resizeParent=1;resizeParentMax=0;resizeLast=0;collapsible=1;marginBottom=0;" parent="zU3xAgJa-zYssiEawstD-1" vertex="1">
          <mxGeometry x="870" y="710" width="140" height="90" as="geometry" />
        </mxCell>
        <mxCell id="zU3xAgJa-zYssiEawstD-132" value="카드 번호 (PK)" style="text;strokeColor=none;fillColor=none;align=left;verticalAlign=middle;spacingLeft=4;spacingRight=4;overflow=hidden;points=[[0,0.5],[1,0.5]];portConstraint=eastwest;rotatable=0;" parent="zU3xAgJa-zYssiEawstD-131" vertex="1">
          <mxGeometry y="30" width="140" height="30" as="geometry" />
        </mxCell>
        <mxCell id="zU3xAgJa-zYssiEawstD-133" value="고객 ID (FK)" style="text;strokeColor=none;fillColor=none;align=left;verticalAlign=middle;spacingLeft=4;spacingRight=4;overflow=hidden;points=[[0,0.5],[1,0.5]];portConstraint=eastwest;rotatable=0;" parent="zU3xAgJa-zYssiEawstD-131" vertex="1">
          <mxGeometry y="60" width="140" height="30" as="geometry" />
        </mxCell>
        <mxCell id="9sn5cRY6LrYYAdsPsha9-0" style="edgeStyle=orthogonalEdgeStyle;rounded=0;orthogonalLoop=1;jettySize=auto;html=1;exitX=0;exitY=0.5;exitDx=0;exitDy=0;entryX=0;entryY=0.5;entryDx=0;entryDy=0;" parent="zU3xAgJa-zYssiEawstD-1" target="zU3xAgJa-zYssiEawstD-77" edge="1">
          <mxGeometry relative="1" as="geometry">
            <Array as="points">
              <mxPoint x="1270" y="1145" />
              <mxPoint x="1270" y="735" />
            </Array>
            <mxPoint x="1300" y="1145" as="sourcePoint" />
          </mxGeometry>
        </mxCell>
        <mxCell id="YhDlOVRA7V4Gf_TVpLHy-0" value="쿠폰함" style="swimlane;fontStyle=0;childLayout=stackLayout;horizontal=1;startSize=30;horizontalStack=0;resizeParent=1;resizeParentMax=0;resizeLast=0;collapsible=1;marginBottom=0;" parent="zU3xAgJa-zYssiEawstD-1" vertex="1">
          <mxGeometry x="1300" y="1070" width="140" height="90" as="geometry" />
        </mxCell>
        <mxCell id="YhDlOVRA7V4Gf_TVpLHy-1" value="쿠폰 ID (PK)" style="text;strokeColor=none;fillColor=none;align=left;verticalAlign=middle;spacingLeft=4;spacingRight=4;overflow=hidden;points=[[0,0.5],[1,0.5]];portConstraint=eastwest;rotatable=0;" parent="YhDlOVRA7V4Gf_TVpLHy-0" vertex="1">
          <mxGeometry y="30" width="140" height="30" as="geometry" />
        </mxCell>
        <mxCell id="YhDlOVRA7V4Gf_TVpLHy-2" value="고객 ID" style="text;strokeColor=none;fillColor=none;align=left;verticalAlign=middle;spacingLeft=4;spacingRight=4;overflow=hidden;points=[[0,0.5],[1,0.5]];portConstraint=eastwest;rotatable=0;" parent="YhDlOVRA7V4Gf_TVpLHy-0" vertex="1">
          <mxGeometry y="60" width="140" height="30" as="geometry" />
        </mxCell>
        <mxCell id="YhDlOVRA7V4Gf_TVpLHy-4" value="쿠폰" style="swimlane;fontStyle=0;childLayout=stackLayout;horizontal=1;startSize=30;horizontalStack=0;resizeParent=1;resizeParentMax=0;resizeLast=0;collapsible=1;marginBottom=0;" parent="zU3xAgJa-zYssiEawstD-1" vertex="1">
          <mxGeometry x="1300" y="1180" width="140" height="150" as="geometry" />
        </mxCell>
        <mxCell id="YhDlOVRA7V4Gf_TVpLHy-5" value="쿠폰 ID (PK)" style="text;strokeColor=none;fillColor=none;align=left;verticalAlign=middle;spacingLeft=4;spacingRight=4;overflow=hidden;points=[[0,0.5],[1,0.5]];portConstraint=eastwest;rotatable=0;" parent="YhDlOVRA7V4Gf_TVpLHy-4" vertex="1">
          <mxGeometry y="30" width="140" height="30" as="geometry" />
        </mxCell>
        <mxCell id="YhDlOVRA7V4Gf_TVpLHy-6" value="쿠폰 이름" style="text;strokeColor=none;fillColor=none;align=left;verticalAlign=middle;spacingLeft=4;spacingRight=4;overflow=hidden;points=[[0,0.5],[1,0.5]];portConstraint=eastwest;rotatable=0;" parent="YhDlOVRA7V4Gf_TVpLHy-4" vertex="1">
          <mxGeometry y="60" width="140" height="30" as="geometry" />
        </mxCell>
        <mxCell id="YhDlOVRA7V4Gf_TVpLHy-7" value="유효기간" style="text;strokeColor=none;fillColor=none;align=left;verticalAlign=middle;spacingLeft=4;spacingRight=4;overflow=hidden;points=[[0,0.5],[1,0.5]];portConstraint=eastwest;rotatable=0;" parent="YhDlOVRA7V4Gf_TVpLHy-4" vertex="1">
          <mxGeometry y="90" width="140" height="30" as="geometry" />
        </mxCell>
        <mxCell id="YhDlOVRA7V4Gf_TVpLHy-8" value="쿠폰 내용" style="text;strokeColor=none;fillColor=none;align=left;verticalAlign=middle;spacingLeft=4;spacingRight=4;overflow=hidden;points=[[0,0.5],[1,0.5]];portConstraint=eastwest;rotatable=0;" parent="YhDlOVRA7V4Gf_TVpLHy-4" vertex="1">
          <mxGeometry y="120" width="140" height="30" as="geometry" />
        </mxCell>
        <mxCell id="qFOHR51QBiqvnY_GQOOh-0" value="컴플레인" style="swimlane;fontStyle=0;childLayout=stackLayout;horizontal=1;startSize=30;horizontalStack=0;resizeParent=1;resizeParentMax=0;resizeLast=0;collapsible=1;marginBottom=0;" parent="zU3xAgJa-zYssiEawstD-1" vertex="1">
          <mxGeometry x="1460" y="690" width="140" height="210" as="geometry" />
        </mxCell>
        <mxCell id="qFOHR51QBiqvnY_GQOOh-1" value="접수 ID (PK)" style="text;strokeColor=none;fillColor=none;align=left;verticalAlign=middle;spacingLeft=4;spacingRight=4;overflow=hidden;points=[[0,0.5],[1,0.5]];portConstraint=eastwest;rotatable=0;" parent="qFOHR51QBiqvnY_GQOOh-0" vertex="1">
          <mxGeometry y="30" width="140" height="30" as="geometry" />
        </mxCell>
        <mxCell id="qFOHR51QBiqvnY_GQOOh-2" value="고객 ID" style="text;strokeColor=none;fillColor=none;align=left;verticalAlign=middle;spacingLeft=4;spacingRight=4;overflow=hidden;points=[[0,0.5],[1,0.5]];portConstraint=eastwest;rotatable=0;" parent="qFOHR51QBiqvnY_GQOOh-0" vertex="1">
          <mxGeometry y="60" width="140" height="30" as="geometry" />
        </mxCell>
        <mxCell id="qFOHR51QBiqvnY_GQOOh-3" value="매장 ID" style="text;strokeColor=none;fillColor=none;align=left;verticalAlign=middle;spacingLeft=4;spacingRight=4;overflow=hidden;points=[[0,0.5],[1,0.5]];portConstraint=eastwest;rotatable=0;" parent="qFOHR51QBiqvnY_GQOOh-0" vertex="1">
          <mxGeometry y="90" width="140" height="30" as="geometry" />
        </mxCell>
        <mxCell id="qFOHR51QBiqvnY_GQOOh-4" value="제목" style="text;strokeColor=none;fillColor=none;align=left;verticalAlign=middle;spacingLeft=4;spacingRight=4;overflow=hidden;points=[[0,0.5],[1,0.5]];portConstraint=eastwest;rotatable=0;" parent="qFOHR51QBiqvnY_GQOOh-0" vertex="1">
          <mxGeometry y="120" width="140" height="30" as="geometry" />
        </mxCell>
        <mxCell id="qFOHR51QBiqvnY_GQOOh-5" value="내용" style="text;strokeColor=none;fillColor=none;align=left;verticalAlign=middle;spacingLeft=4;spacingRight=4;overflow=hidden;points=[[0,0.5],[1,0.5]];portConstraint=eastwest;rotatable=0;" parent="qFOHR51QBiqvnY_GQOOh-0" vertex="1">
          <mxGeometry y="150" width="140" height="30" as="geometry" />
        </mxCell>
        <mxCell id="qFOHR51QBiqvnY_GQOOh-6" value="접수일" style="text;strokeColor=none;fillColor=none;align=left;verticalAlign=middle;spacingLeft=4;spacingRight=4;overflow=hidden;points=[[0,0.5],[1,0.5]];portConstraint=eastwest;rotatable=0;" parent="qFOHR51QBiqvnY_GQOOh-0" vertex="1">
          <mxGeometry y="180" width="140" height="30" as="geometry" />
        </mxCell>
        <mxCell id="o1rIj2Z2G5obHYE73OzJ-0" value="결제내역" style="swimlane;fontStyle=0;childLayout=stackLayout;horizontal=1;startSize=30;horizontalStack=0;resizeParent=1;resizeParentMax=0;resizeLast=0;collapsible=1;marginBottom=0;" parent="zU3xAgJa-zYssiEawstD-1" vertex="1">
          <mxGeometry x="1029" y="710" width="140" height="210" as="geometry" />
        </mxCell>
        <mxCell id="o1rIj2Z2G5obHYE73OzJ-1" value="결제 번호" style="text;strokeColor=none;fillColor=none;align=left;verticalAlign=middle;spacingLeft=4;spacingRight=4;overflow=hidden;points=[[0,0.5],[1,0.5]];portConstraint=eastwest;rotatable=0;" parent="o1rIj2Z2G5obHYE73OzJ-0" vertex="1">
          <mxGeometry y="30" width="140" height="30" as="geometry" />
        </mxCell>
        <mxCell id="o1rIj2Z2G5obHYE73OzJ-2" value="고객 ID" style="text;strokeColor=none;fillColor=none;align=left;verticalAlign=middle;spacingLeft=4;spacingRight=4;overflow=hidden;points=[[0,0.5],[1,0.5]];portConstraint=eastwest;rotatable=0;" parent="o1rIj2Z2G5obHYE73OzJ-0" vertex="1">
          <mxGeometry y="60" width="140" height="30" as="geometry" />
        </mxCell>
        <mxCell id="o1rIj2Z2G5obHYE73OzJ-3" value="결제 금액" style="text;strokeColor=none;fillColor=none;align=left;verticalAlign=middle;spacingLeft=4;spacingRight=4;overflow=hidden;points=[[0,0.5],[1,0.5]];portConstraint=eastwest;rotatable=0;" parent="o1rIj2Z2G5obHYE73OzJ-0" vertex="1">
          <mxGeometry y="90" width="140" height="30" as="geometry" />
        </mxCell>
        <mxCell id="o1rIj2Z2G5obHYE73OzJ-4" value="결제 날짜" style="text;strokeColor=none;fillColor=none;align=left;verticalAlign=middle;spacingLeft=4;spacingRight=4;overflow=hidden;points=[[0,0.5],[1,0.5]];portConstraint=eastwest;rotatable=0;" parent="o1rIj2Z2G5obHYE73OzJ-0" vertex="1">
          <mxGeometry y="120" width="140" height="30" as="geometry" />
        </mxCell>
        <mxCell id="o1rIj2Z2G5obHYE73OzJ-5" value="결제 방법" style="text;strokeColor=none;fillColor=none;align=left;verticalAlign=middle;spacingLeft=4;spacingRight=4;overflow=hidden;points=[[0,0.5],[1,0.5]];portConstraint=eastwest;rotatable=0;" parent="o1rIj2Z2G5obHYE73OzJ-0" vertex="1">
          <mxGeometry y="150" width="140" height="30" as="geometry" />
        </mxCell>
        <mxCell id="o1rIj2Z2G5obHYE73OzJ-6" value="쿠폰 사용 유무" style="text;strokeColor=none;fillColor=none;align=left;verticalAlign=middle;spacingLeft=4;spacingRight=4;overflow=hidden;points=[[0,0.5],[1,0.5]];portConstraint=eastwest;rotatable=0;" parent="o1rIj2Z2G5obHYE73OzJ-0" vertex="1">
          <mxGeometry y="180" width="140" height="30" as="geometry" />
        </mxCell>
        <mxCell id="awuCHk4iBXCLj_5ZOOaw-0" value="이벤트" style="swimlane;fontStyle=0;childLayout=stackLayout;horizontal=1;startSize=30;horizontalStack=0;resizeParent=1;resizeParentMax=0;resizeLast=0;collapsible=1;marginBottom=0;" parent="zU3xAgJa-zYssiEawstD-1" vertex="1">
          <mxGeometry x="2210" y="630" width="140" height="90" as="geometry" />
        </mxCell>
        <mxCell id="awuCHk4iBXCLj_5ZOOaw-1" value="이벤트 ID" style="text;strokeColor=none;fillColor=none;align=left;verticalAlign=middle;spacingLeft=4;spacingRight=4;overflow=hidden;points=[[0,0.5],[1,0.5]];portConstraint=eastwest;rotatable=0;" parent="awuCHk4iBXCLj_5ZOOaw-0" vertex="1">
          <mxGeometry y="30" width="140" height="30" as="geometry" />
        </mxCell>
        <mxCell id="awuCHk4iBXCLj_5ZOOaw-2" value="매장 ID" style="text;strokeColor=none;fillColor=none;align=left;verticalAlign=middle;spacingLeft=4;spacingRight=4;overflow=hidden;points=[[0,0.5],[1,0.5]];portConstraint=eastwest;rotatable=0;" parent="awuCHk4iBXCLj_5ZOOaw-0" vertex="1">
          <mxGeometry y="60" width="140" height="30" as="geometry" />
        </mxCell>
        <mxCell id="awuCHk4iBXCLj_5ZOOaw-3" value="이벤트 종류" style="swimlane;fontStyle=0;childLayout=stackLayout;horizontal=1;startSize=30;horizontalStack=0;resizeParent=1;resizeParentMax=0;resizeLast=0;collapsible=1;marginBottom=0;" parent="zU3xAgJa-zYssiEawstD-1" vertex="1">
          <mxGeometry x="2210" y="740" width="140" height="180" as="geometry" />
        </mxCell>
        <mxCell id="awuCHk4iBXCLj_5ZOOaw-4" value="이벤트 ID (PK)" style="text;strokeColor=none;fillColor=none;align=left;verticalAlign=middle;spacingLeft=4;spacingRight=4;overflow=hidden;points=[[0,0.5],[1,0.5]];portConstraint=eastwest;rotatable=0;" parent="awuCHk4iBXCLj_5ZOOaw-3" vertex="1">
          <mxGeometry y="30" width="140" height="30" as="geometry" />
        </mxCell>
        <mxCell id="awuCHk4iBXCLj_5ZOOaw-5" value="이벤트명" style="text;strokeColor=none;fillColor=none;align=left;verticalAlign=middle;spacingLeft=4;spacingRight=4;overflow=hidden;points=[[0,0.5],[1,0.5]];portConstraint=eastwest;rotatable=0;" parent="awuCHk4iBXCLj_5ZOOaw-3" vertex="1">
          <mxGeometry y="60" width="140" height="30" as="geometry" />
        </mxCell>
        <mxCell id="awuCHk4iBXCLj_5ZOOaw-6" value="이벤트 내용" style="text;strokeColor=none;fillColor=none;align=left;verticalAlign=middle;spacingLeft=4;spacingRight=4;overflow=hidden;points=[[0,0.5],[1,0.5]];portConstraint=eastwest;rotatable=0;" parent="awuCHk4iBXCLj_5ZOOaw-3" vertex="1">
          <mxGeometry y="90" width="140" height="30" as="geometry" />
        </mxCell>
        <mxCell id="awuCHk4iBXCLj_5ZOOaw-7" value="시작일" style="text;strokeColor=none;fillColor=none;align=left;verticalAlign=middle;spacingLeft=4;spacingRight=4;overflow=hidden;points=[[0,0.5],[1,0.5]];portConstraint=eastwest;rotatable=0;" parent="awuCHk4iBXCLj_5ZOOaw-3" vertex="1">
          <mxGeometry y="120" width="140" height="30" as="geometry" />
        </mxCell>
        <mxCell id="awuCHk4iBXCLj_5ZOOaw-8" value="마감일" style="text;strokeColor=none;fillColor=none;align=left;verticalAlign=middle;spacingLeft=4;spacingRight=4;overflow=hidden;points=[[0,0.5],[1,0.5]];portConstraint=eastwest;rotatable=0;" parent="awuCHk4iBXCLj_5ZOOaw-3" vertex="1">
          <mxGeometry y="150" width="140" height="30" as="geometry" />
        </mxCell>
      </root>
    </mxGraphModel>
  </diagram>
</mxfile>
